<?xml version="1.0" encoding="UTF-8"?>
<!DOCTYPE svg PUBLIC "-//W3C//DTD SVG 1.1//EN" "http://www.w3.org/Graphics/SVG/1.1/DTD/svg11.dtd">
<!-- Creator: CorelDRAW 2021 (64-Bit) -->
<svg xmlns="http://www.w3.org/2000/svg" xml:space="preserve" width="4.834mm" height="5.6692mm" version="1.1" style="shape-rendering:geometricPrecision; text-rendering:geometricPrecision; image-rendering:optimizeQuality; fill-rule:evenodd; clip-rule:evenodd"
viewBox="0 0 80.61 94.53"
 xmlns:xlink="http://www.w3.org/1999/xlink"
 xmlns:xodm="http://www.corel.com/coreldraw/odm/2003">
 <defs>
  <style type="text/css">
   <![CDATA[
    .fil0 {fill:#FFCA01}
   ]]>
  </style>
 </defs>
 <g id="Слой_x0020_1">
  <metadata id="CorelCorpID_0Corel-Layer"/>
  <path class="fil0" d="M-0 10.98l10.98 0 0 -10.98 -10.98 0 0 10.98zm10.98 2.94l-10.98 0 0 10.98 10.98 0 0 -10.98zm0 13.93l-10.98 0 0 10.98 10.98 0 0 -10.98zm0 13.93l-10.98 0 0 10.98 10.98 0 0 -10.98zm0 13.93l-10.98 0 0 10.98 10.98 0 0 -10.98zm-10.98 24.91l10.98 0 0 -10.98 -10.98 0 0 10.98zm10.98 2.94l-10.98 0 0 10.98 10.98 0 0 -10.98zm27.85 -83.55l-10.98 0 0 10.98 10.98 0 0 -10.98zm0 13.93l-10.98 0 0 10.98 10.98 0 0 -10.98zm30.79 -2.94l10.98 0 0 -10.98 -10.98 0 0 10.98zm10.98 2.94l-10.98 0 0 10.98 10.98 0 0 -10.98zm0 13.93l-10.98 0 0 10.98 10.98 0 0 -10.98zm-27.85 14l-10.98 0 0 10.98 10.98 0 0 -10.98zm2.94 -0.07l0 10.98 10.98 0 0 -10.98 -10.98 0zm-16.87 10.98l0 -10.98 -10.98 0 0 10.98 10.98 0zm41.77 -10.98l-10.98 0 0 10.98 10.98 0 0 -10.98zm0 13.93l-10.98 0 0 10.98 10.98 0 0 -10.98zm-10.98 24.91l10.98 0 0 -10.98 -10.98 0 0 10.98zm10.98 2.94l-10.98 0 0 10.98 10.98 0 0 -10.98zm-41.77 -55.7l-10.98 0 0 10.98 10.98 0 0 -10.98z"/>
 </g>
</svg>
