<?xml version="1.0" encoding="UTF-8"?>
<!DOCTYPE svg PUBLIC "-//W3C//DTD SVG 1.1//EN" "http://www.w3.org/Graphics/SVG/1.1/DTD/svg11.dtd">
<!-- Creator: CorelDRAW 2021 (64-Bit) -->
<svg xmlns="http://www.w3.org/2000/svg" xml:space="preserve" width="100%" height="100%" version="1.1" style="shape-rendering:geometricPrecision; text-rendering:geometricPrecision; image-rendering:optimizeQuality; fill-rule:evenodd; clip-rule:evenodd"
viewBox="0 0 104.16 80.46"
 xmlns:xlink="http://www.w3.org/1999/xlink"
 xmlns:xodm="http://www.corel.com/coreldraw/odm/2003">
 <defs>
  <style type="text/css">
   <![CDATA[
    .fil0 {fill:#FFCA01}
   ]]>
  </style>
 </defs>
 <g id="Слой_x0020_1">
  <metadata id="CorelCorpID_0Corel-Layer"/>
  <path class="fil0" d="M9.35 0l-9.35 0 0 9.35 9.35 0 0 -9.35zm2.5 0l0 9.35 9.35 0 0 -9.35 -9.35 0zm11.85 0l0 9.35 9.35 0 0 -9.35 -9.35 0zm21.2 11.85l-9.35 0 0 9.35 9.35 0 0 -9.35zm0 11.85l-9.35 0 0 9.35 9.35 0 0 -9.35zm-23.7 11.91l-9.35 0 0 9.35 9.35 0 0 -9.35zm2.5 0l0 9.35 9.35 0 0 -9.35 -9.35 0zm-23.7 32.99l9.35 0 0 -9.29 -9.35 0 0 9.29zm9.35 2.5l-9.35 0 0 9.35 9.35 0 0 -9.35zm2.5 0l0 9.35 9.35 0 0 -9.35 -9.35 0zm11.85 0l0 9.35 9.35 0 0 -9.35 -9.35 0zm11.85 0l0 9.35 9.35 0 0 -9.35 -9.35 0zm-26.21 -23.64l-9.35 0 0 9.29 9.35 0 0 -9.29zm71.11 -47.47l-9.35 0 0 9.35 9.35 0 0 -9.35zm2.5 0l0 9.35 9.35 0 0 -9.35 -9.35 0zm-14.36 9.35l0 -9.35 -9.35 0 0 9.35 9.35 0zm35.56 2.5l-9.35 0 0 9.35 9.35 0 0 -9.35zm0 11.85l-9.35 0 0 9.35 9.35 0 0 -9.35zm0 23.7l-9.35 0 0 9.35 9.35 0 0 -9.35zm0 11.85l-9.35 0 0 9.35 9.35 0 0 -9.35zm-23.7 11.85l-9.35 0 0 9.35 9.35 0 0 -9.35zm2.5 0l0 9.35 9.35 0 0 -9.35 -9.35 0zm-14.36 9.35l0 -9.35 -9.35 0 0 9.35 9.35 0zm23.7 -44.9l-9.35 0 0 9.35 9.35 0 0 -9.35zm-11.85 0l-9.35 0 0 9.35 9.35 0 0 -9.35z"/>
 </g>
</svg>
