<?xml version="1.0" encoding="UTF-8"?>
<!DOCTYPE svg PUBLIC "-//W3C//DTD SVG 1.1//EN" "http://www.w3.org/Graphics/SVG/1.1/DTD/svg11.dtd">
<!-- Creator: CorelDRAW 2021 (64-Bit) -->
<svg xmlns="http://www.w3.org/2000/svg" xml:space="preserve" width="3.1639mm" height="5.6692mm" version="1.1" style="shape-rendering:geometricPrecision; text-rendering:geometricPrecision; image-rendering:optimizeQuality; fill-rule:evenodd; clip-rule:evenodd"
viewBox="0 0 16.37 29.33"
 xmlns:xlink="http://www.w3.org/1999/xlink"
 xmlns:xodm="http://www.corel.com/coreldraw/odm/2003">
 <defs>
  <style type="text/css">
   <![CDATA[
    .fil0 {fill:#FFCA01}
   ]]>
  </style>
 </defs>
 <g id="Слой_x0020_1">
  <metadata id="CorelCorpID_0Corel-Layer"/>
  <path class="fil0" d="M3.41 0l-3.41 0 0 3.41 3.41 0 0 -3.41zm0 4.32l-3.41 0 0 3.41 3.41 0 0 -3.41zm9.56 -0.91l3.41 0 0 -3.41 -3.41 0 0 3.41zm3.41 0.91l-3.41 0 0 3.41 3.41 0 0 -3.41zm0 4.32l-3.41 0 0 3.41 3.41 0 0 -3.41zm-8.64 4.34l-3.41 0 0 3.41 3.41 0 0 -3.41zm0.91 -0.02l0 3.41 3.41 0 0 -3.41 -3.41 0zm-5.23 3.41l0 -3.41 -3.41 0 0 3.41 3.41 0zm12.96 -3.41l-3.41 0 0 3.41 3.41 0 0 -3.41zm0 4.32l-3.41 0 0 3.41 3.41 0 0 -3.41zm-3.41 7.73l3.41 0 0 -3.41 -3.41 0 0 3.41zm3.41 0.91l-3.41 0 0 3.41 3.41 0 0 -3.41zm-12.96 -17.28l-3.41 0 0 3.41 3.41 0 0 -3.41z"/>
 </g>
</svg>
