<?xml version="1.0" encoding="UTF-8"?>
<!DOCTYPE svg PUBLIC "-//W3C//DTD SVG 1.1//EN" "http://www.w3.org/Graphics/SVG/1.1/DTD/svg11.dtd">
<!-- Creator: CorelDRAW 2021 (64-Bit) -->
<svg xmlns="http://www.w3.org/2000/svg" xml:space="preserve" width="3.1639mm" height="5.6692mm" version="1.1" style="shape-rendering:geometricPrecision; text-rendering:geometricPrecision; image-rendering:optimizeQuality; fill-rule:evenodd; clip-rule:evenodd"
viewBox="0 0 17.83 31.95"
 xmlns:xlink="http://www.w3.org/1999/xlink"
 xmlns:xodm="http://www.corel.com/coreldraw/odm/2003">
 <defs>
  <style type="text/css">
   <![CDATA[
    .fil0 {fill:#FFCA01}
   ]]>
  </style>
 </defs>
 <g id="Слой_x0020_1">
  <metadata id="CorelCorpID_0Corel-Layer"/>
  <path class="fil0" d="M3.71 0l-3.71 0 0 3.71 3.71 0 0 -3.71zm0.99 0l0 3.71 3.71 0 0 -3.71 -3.71 0zm-0.99 4.71l-3.71 0 0 3.71 3.71 0 0 -3.71zm5.7 -4.71l0 3.71 3.71 0 0 -3.71 -3.71 0zm4.71 0l0 3.71 3.71 0 0 -3.71 -3.71 0zm-10.41 9.41l-3.71 0 0 3.71 3.71 0 0 -3.71zm0.99 0l0 3.71 3.71 0 0 -3.71 -3.71 0zm4.71 0l0 3.71 3.71 0 0 -3.71 -3.71 0zm8.42 4.71l-3.71 0 0 3.71 3.71 0 0 -3.71zm0 4.71l-3.71 0 0 3.71 3.71 0 0 -3.71zm0 4.71l-3.71 0 0 3.71 3.71 0 0 -3.71zm-14.12 4.71l-3.71 0 0 3.71 3.71 0 0 -3.71zm0.99 0l0 3.71 3.71 0 0 -3.71 -3.71 0zm4.71 0l0 3.71 3.71 0 0 -3.71 -3.71 0z"/>
 </g>
</svg>
