<?xml version="1.0" encoding="UTF-8"?>
<!DOCTYPE svg PUBLIC "-//W3C//DTD SVG 1.1//EN" "http://www.w3.org/Graphics/SVG/1.1/DTD/svg11.dtd">
<!-- Creator: CorelDRAW 2021 (64-Bit) -->
<svg xmlns="http://www.w3.org/2000/svg" xml:space="preserve" width="150" height="70" version="1.1" style="shape-rendering:geometricPrecision; text-rendering:geometricPrecision; image-rendering:optimizeQuality; fill-rule:evenodd; clip-rule:evenodd"
viewBox="0 0 1087.6 373.12"
 xmlns:xlink="http://www.w3.org/1999/xlink"
 xmlns:xodm="http://www.corel.com/coreldraw/odm/2003">
 <defs>
  <style type="text/css">
   <![CDATA[
    .fil0 {fill:#FFCA01}
   ]]>
  </style>
 </defs>
 <g id="Слой_x0020_1">
  <metadata id="CorelCorpID_0Corel-Layer"/>
  <path class="fil0" d="M43.35 0l-43.35 0 0 43.35 43.35 0 0 -43.35zm274.8 0l-43.35 0 0 43.35 43.35 0 0 -43.35zm11.61 0l0 43.35 43.35 0 0 -43.35 -43.35 0zm-11.61 54.96l-43.35 0 0 43.35 43.35 0 0 -43.35zm66.57 -54.96l0 43.35 43.35 0 0 -43.35 -43.35 0zm54.96 0l0 43.35 43.35 0 0 -43.35 -43.35 0zm208.23 0l-43.35 0 0 43.35 43.35 0 0 -43.35zm11.61 0l0 43.35 43.35 0 0 -43.35 -43.35 0zm54.96 0l0 43.35 43.35 0 0 -43.35 -43.35 0zm208.23 0l-43.35 0 0 43.35 43.35 0 0 -43.35zm0 54.96l-43.35 0 0 43.35 43.35 0 0 -43.35zm164.88 -54.96l-43.35 0 0 43.35 43.35 0 0 -43.35zm0 54.96l-43.35 0 0 43.35 43.35 0 0 -43.35zm-989.29 0l-43.35 0 0 43.35 43.35 0 0 -43.35zm219.84 54.96l-43.35 0 0 43.35 43.35 0 0 -43.35zm274.81 -54.96l-43.35 0 0 43.35 43.35 0 0 -43.35zm0 54.96l-43.35 0 0 43.35 43.35 0 0 -43.35zm219.84 -54.96l-43.35 0 0 43.35 43.35 0 0 -43.35zm0 54.96l-43.35 0 0 43.35 43.35 0 0 -43.35zm109.93 0l-43.35 0 0 43.35 43.35 0 0 -43.35zm-769.45 0l-43.35 0 0 43.35 43.35 0 0 -43.35zm176.49 0l0 43.35 43.35 0 0 -43.35 -43.35 0zm54.96 0l0 43.35 43.35 0 0 -43.35 -43.35 0zm208.23 54.96l-43.35 0 0 43.35 43.35 0 0 -43.35zm219.84 0l-43.35 0 0 43.35 43.35 0 0 -43.35zm109.93 0l-43.35 0 0 43.35 43.35 0 0 -43.35zm109.92 -54.96l-43.35 0 0 43.35 43.35 0 0 -43.35zm-824.41 54.96l-43.35 0 0 43.35 43.35 0 0 -43.35zm274.8 0l-43.35 0 0 43.35 43.35 0 0 -43.35zm0 54.96l-43.35 0 0 43.35 43.35 0 0 -43.35zm109.93 0l-43.35 0 0 43.35 43.35 0 0 -43.35zm219.84 0l-43.35 0 0 43.35 43.35 0 0 -43.35zm121.54 -54.96l0 43.35 43.35 0 0 -43.35 -43.35 0zm-11.61 54.96l-43.35 0 0 43.35 43.35 0 0 -43.35zm-769.45 0l-43.35 0 0 43.35 43.35 0 0 -43.35zm329.76 54.96l-43.35 0 0 43.35 43.35 0 0 -43.35zm109.93 0l-43.35 0 0 43.35 43.35 0 0 -43.35zm219.84 0l-43.35 0 0 43.35 43.35 0 0 -43.35zm109.93 0l-43.35 0 0 43.35 43.35 0 0 -43.35zm109.92 -54.96l-43.35 0 0 43.35 43.35 0 0 -43.35zm-934.33 54.96l-43.35 0 0 43.35 43.35 0 0 -43.35zm824.41 54.96l-43.35 0 0 43.35 43.35 0 0 -43.35zm164.88 -54.96l-43.35 0 0 43.35 43.35 0 0 -43.35zm0 54.96l-43.35 0 0 43.35 43.35 0 0 -43.35zm-1044.25 0l-43.35 0 0 43.35 43.35 0 0 -43.35zm274.8 0l-43.35 0 0 43.35 43.35 0 0 -43.35zm11.61 0l0 43.35 43.35 0 0 -43.35 -43.35 0zm54.96 0l0 43.35 43.35 0 0 -43.35 -43.35 0zm263.19 0l-43.35 0 0 43.35 43.35 0 0 -43.35zm11.61 0l0 43.35 43.35 0 0 -43.35 -43.35 0zm54.96 0l0 43.35 43.35 0 0 -43.35 -43.35 0z"/>
 </g>
</svg>
