<svg width="100%" height="100%" viewBox="0 0 150 70" fill="none" xmlns="http://www.w3.org/2000/svg">
<g clip-path="url(#clip0_1258_6013)">
<path fill-rule="evenodd" clip-rule="evenodd" d="M8.10531 0H0.00186539V8.13277H8.10531V0ZM10.2756 0V8.13277H18.379V0H10.2756ZM8.10531 10.3109H0.00186539V18.4437H8.10531V10.3109ZM20.5493 0V8.13277H28.6527V0H20.5493ZM30.823 0V8.13277H38.9264V0H30.823ZM68.7475 0H60.6441V8.13277H68.7475V0ZM70.9178 0V8.13277H79.0212V0H70.9178ZM81.1915 0V8.13277H89.295V0H81.1915ZM119.116 0H111.013V8.13277H119.116V0ZM119.116 10.3109H111.013V18.4437H119.116V10.3109ZM149.937 0H141.834V8.13277H149.937V0ZM149.937 10.3109H141.834V18.4437H149.937V10.3109ZM8.10344 20.6218H0V28.7546H8.10344V20.6218ZM58.4738 10.3109H50.3704V18.4437H58.4738V10.3109ZM58.4738 20.6218H50.3704V28.7546H58.4738V20.6218ZM99.5687 10.3109H91.4652V18.4437H99.5687V10.3109ZM99.5687 20.6218H91.4652V28.7546H99.5687V20.6218ZM119.118 20.6218H111.015V28.7546H119.118V20.6218ZM10.2756 20.6218V28.7546H18.379V20.6218H10.2756ZM20.5493 20.6218V28.7546H28.6527V20.6218H20.5493ZM58.4738 30.9327H50.3704V39.0654H58.4738V30.9327ZM99.5687 30.9327H91.4652V39.0654H99.5687V30.9327ZM119.118 30.9327H111.015V39.0654H119.118V30.9327ZM139.665 20.6218H131.562V28.7546H139.665V20.6218ZM38.9264 30.9327H30.823V39.0654H38.9264V30.9327ZM38.9264 41.2436H30.823V49.3763H38.9264V41.2436ZM58.4757 41.2436H50.3723V49.3763H58.4757V41.2436ZM99.5705 41.2436H91.4671V49.3763H99.5705V41.2436ZM121.29 30.9327V39.0654H129.394V30.9327H121.29ZM119.12 41.2436H111.016V49.3763H119.12V41.2436ZM38.9283 51.5545H30.8249V59.6872H38.9283V51.5545ZM58.4776 51.5545H50.3741V59.6872H58.4776V51.5545ZM99.5724 51.5545H91.469V59.6872H99.5724V51.5545ZM119.122 51.5545H111.018V59.6872H119.122V51.5545ZM139.669 41.2436H131.566V49.3763H139.669V41.2436ZM119.122 61.8653H111.018V69.9981H119.122V61.8653ZM149.943 51.5545H141.839V59.6872H149.943V51.5545ZM149.943 61.8653H141.839V69.9981H149.943V61.8653ZM8.10905 61.8653H0.0056076V69.9981H8.10905V61.8653ZM10.2793 61.8653V69.9981H18.3828V61.8653H10.2793ZM20.553 61.8653V69.9981H28.6565V61.8653H20.553ZM68.7513 61.8653H60.6478V69.9981H68.7513V61.8653ZM70.9215 61.8653V69.9981H79.025V61.8653H70.9215ZM81.1952 61.8653V69.9981H89.2987V61.8653H81.1952Z" fill="#FFCA01"/>
</g>
<defs>
<clipPath id="clip0_1258_6013">
<rect width="100%" height="100%" fill="white"/>
</clipPath>
</defs>
</svg>
