<?xml version="1.0" encoding="UTF-8"?>
<!DOCTYPE svg PUBLIC "-//W3C//DTD SVG 1.1//EN" "http://www.w3.org/Graphics/SVG/1.1/DTD/svg11.dtd">
<!-- Creator: CorelDRAW 2021 (64-Bit) -->
<svg xmlns="http://www.w3.org/2000/svg" xml:space="preserve" width="150" height="70" version="1.1" style="shape-rendering:geometricPrecision; text-rendering:geometricPrecision; image-rendering:optimizeQuality; fill-rule:evenodd; clip-rule:evenodd"
viewBox="0 0 67.72 121.34"
 xmlns:xlink="http://www.w3.org/1999/xlink"
 xmlns:xodm="http://www.corel.com/coreldraw/odm/2003">
 <defs>
  <style type="text/css">
   <![CDATA[
    .fil0 {fill:#FFCA01}
   ]]>
  </style>
 </defs>
 <g id="Слой_x0020_1">
  <metadata id="CorelCorpID_0Corel-Layer"/>
  <path class="fil0" d="M14.1 0l-14.1 0 0 14.1 14.1 0 0 -14.1zm3.78 0l0 14.1 14.1 0 0 -14.1 -14.1 0zm35.75 14.1l14.1 0 0 -14.1 -14.1 0 0 14.1zm14.1 3.78l-14.1 0 0 14.1 14.1 0 0 -14.1zm0 17.87l-14.1 0 0 14.1 14.1 0 0 -14.1zm-49.84 67.72l14.1 0 0 -14.1 -14.1 0 0 14.1zm14.1 3.78l-14.1 0 0 14.1 14.1 0 0 -14.1zm17.87 -93.14l0 -14.1 -14.1 0 0 14.1 14.1 0zm-17.87 57.4l-14.1 0 0 14.1 14.1 0 0 -14.1zm17.87 -17.87l-14.1 0 0 14.1 14.1 0 0 -14.1z"/>
 </g>
</svg>
