<?xml version="1.0" encoding="UTF-8"?>
<!DOCTYPE svg PUBLIC "-//W3C//DTD SVG 1.1//EN" "http://www.w3.org/Graphics/SVG/1.1/DTD/svg11.dtd">
<!-- Creator: CorelDRAW 2021 (64-Bit) -->
<svg xmlns="http://www.w3.org/2000/svg" xml:space="preserve" width="100%" height="100%" version="1.1" style="shape-rendering:geometricPrecision; text-rendering:geometricPrecision; image-rendering:optimizeQuality; fill-rule:evenodd; clip-rule:evenodd"
viewBox="0 0 547.03 251.12"
 xmlns:xlink="http://www.w3.org/1999/xlink"
 xmlns:xodm="http://www.corel.com/coreldraw/odm/2003">
 <defs>
  <style type="text/css">
   <![CDATA[
    .fil0 {fill:#FFCA01}
   ]]>
  </style>
 </defs>
 <g id="Слой_x0020_1">
  <metadata id="CorelCorpID_0Corel-Layer"/>
  <path class="fil0" d="M436.06 0l-29.17 0 0 29.17 29.17 0 0 -29.17zm7.81 0l0 29.17 29.18 0 0 -29.17 -29.18 0zm36.99 0l0 29.17 29.18 0 0 -29.17 -29.18 0zm-81.79 36.99l-29.18 0 0 29.18 29.18 0 0 -29.18zm0 36.99l-29.18 0 0 29.18 29.18 0 0 -29.18zm147.95 -36.99l-29.17 0 0 29.18 29.17 0 0 -29.18zm0 36.99l-29.17 0 0 29.18 29.17 0 0 -29.18zm-147.95 36.99l-29.18 0 0 29.18 29.18 0 0 -29.18zm147.95 0l-29.17 0 0 29.18 29.17 0 0 -29.18zm-147.95 36.99l-29.18 0 0 29.18 29.18 0 0 -29.18zm147.95 0l-29.17 0 0 29.18 29.17 0 0 -29.18zm-147.95 36.99l-29.18 0 0 29.17 29.18 0 0 -29.17zm147.95 0l-29.17 0 0 29.17 29.17 0 0 -29.17zm-110.97 36.99l-29.17 0 0 29.18 29.17 0 0 -29.18zm7.81 0l0 29.18 29.18 0 0 -29.18 -29.18 0zm36.99 0l0 29.18 29.18 0 0 -29.18 -29.18 0zm-266.74 -221.94l-29.17 0 0 29.17 29.17 0 0 -29.17zm7.81 0l0 29.17 29.18 0 0 -29.17 -29.18 0zm73.98 29.17l29.17 0 0 -29.17 -29.17 0 0 29.17zm29.17 7.81l-29.17 0 0 29.18 29.17 0 0 -29.18zm0 36.99l-29.17 0 0 29.18 29.17 0 0 -29.18zm-103.15 140.15l29.18 0 0 -29.17 -29.18 0 0 29.17zm29.18 7.81l-29.18 0 0 29.18 29.18 0 0 -29.18zm36.99 -192.76l0 -29.17 -29.18 0 0 29.17 29.18 0zm-36.99 118.79l-29.18 0 0 29.18 29.18 0 0 -29.18zm36.99 -36.99l-29.18 0 0 29.18 29.18 0 0 -29.18zm-258.93 -110.96l-29.18 0 0 29.17 29.18 0 0 -29.17zm36.99 36.99l-29.18 0 0 29.18 29.18 0 0 -29.18zm36.99 36.99l-29.17 0 0 29.18 29.17 0 0 -29.18zm36.99 36.99l-29.18 0 0 29.18 29.18 0 0 -29.18zm-36.99 36.99l-29.17 0 0 29.18 29.17 0 0 -29.18zm-36.99 36.99l-29.18 0 0 29.17 29.18 0 0 -29.17zm-36.99 36.99l-29.18 0 0 29.18 29.18 0 0 -29.18z"/>
 </g>
</svg>
