<svg width="24" height="24" viewBox="0 0 24 24" fill="none" xmlns="http://www.w3.org/2000/svg">
<path d="M13.1542 21.2133C15.4819 20.9171 17.6094 19.7458 19.1044 17.9373C20.5994 16.1288 21.3497 13.8189 21.2027 11.4771C21.0558 9.13533 20.0227 6.93734 18.3134 5.32991C16.604 3.72248 14.3468 2.82623 12.0004 2.82332C9.6511 2.82157 7.38955 3.71563 5.67654 5.32333C3.96353 6.93103 2.92796 9.13139 2.78085 11.4761C2.63374 13.8207 3.38615 16.1333 4.88477 17.9425C6.3834 19.7517 8.51546 20.9214 10.8465 21.2133V14.3618H8.53884V12.0541H10.8465V10.1456C10.8465 8.60293 11.0081 8.04332 11.3081 7.47909C11.6036 6.92084 12.0603 6.4645 12.6188 6.16947C13.0596 5.93293 13.6077 5.79101 14.5654 5.72986C14.945 5.70563 15.4365 5.73563 16.04 5.82216V8.01447H15.4619C14.4038 8.01447 13.9665 8.06409 13.7058 8.2037C13.5502 8.28373 13.4235 8.41041 13.3435 8.56601C13.205 8.82678 13.1542 9.08524 13.1542 10.1445V12.0541H16.0388L15.4619 14.3618H13.1542V21.2133ZM12.0004 23.5926C5.62768 23.5926 0.461914 18.4268 0.461914 12.0541C0.461914 5.6814 5.62768 0.515625 12.0004 0.515625C18.3731 0.515625 23.5388 5.6814 23.5388 12.0541C23.5388 18.4268 18.3731 23.5926 12.0004 23.5926Z" fill="#14469D"/>
</svg>
