<svg width="25" height="25" viewBox="0 0 25 25" fill="none" xmlns="http://www.w3.org/2000/svg">
<path d="M12.0551 2.82356C9.20045 2.82356 8.73429 2.83164 7.40622 2.89049C6.5016 2.93318 5.89468 3.05433 5.3316 3.27356C4.83083 3.46741 4.46968 3.69933 4.08545 4.08472C3.7243 4.43364 3.44662 4.85962 3.27314 5.33087C3.05391 5.89625 2.93276 6.50202 2.89122 7.40549C2.83122 8.67933 2.82429 9.12472 2.82429 12.0543C2.82429 14.9089 2.83237 15.3751 2.89122 16.7032C2.93391 17.6066 3.05506 18.2147 3.27314 18.7766C3.46929 19.2786 3.70006 19.6397 4.08314 20.0228C4.47199 20.4105 4.83314 20.6424 5.32929 20.834C5.89929 21.0543 6.50622 21.1766 7.40622 21.2182C8.68006 21.2782 9.12545 21.2851 12.0551 21.2851C14.9097 21.2851 15.3758 21.277 16.7039 21.2182C17.6062 21.1755 18.2143 21.0543 18.7774 20.8363C19.277 20.6413 19.6404 20.4093 20.0235 20.0263C20.4124 19.6374 20.6443 19.2763 20.8358 18.7801C21.0551 18.2113 21.1774 17.6032 21.2189 16.7032C21.2789 15.4293 21.2858 14.9839 21.2858 12.0543C21.2858 9.19972 21.2778 8.73356 21.2189 7.40549C21.1762 6.50318 21.0551 5.89395 20.8358 5.33087C20.6619 4.8601 20.3848 4.43429 20.0247 4.08472C19.6759 3.72338 19.2499 3.44568 18.7785 3.27241C18.2131 3.05318 17.6062 2.93202 16.7039 2.89049C15.4301 2.83049 14.9847 2.82356 12.0551 2.82356ZM12.0551 0.515869C15.1901 0.515869 15.5812 0.527408 16.8112 0.5851C18.0401 0.642792 18.8766 0.835485 19.6128 1.12164C20.3743 1.41472 21.0158 1.81164 21.6574 2.45202C22.2441 3.02883 22.6981 3.72655 22.9878 4.49664C23.2728 5.23164 23.4666 6.06933 23.5243 7.29818C23.5785 8.52818 23.5935 8.91933 23.5935 12.0543C23.5935 15.1893 23.582 15.5805 23.5243 16.8105C23.4666 18.0393 23.2728 18.8759 22.9878 19.612C22.6989 20.3825 22.2448 21.0804 21.6574 21.6566C21.0804 22.2432 20.3827 22.6971 19.6128 22.987C18.8778 23.272 18.0401 23.4659 16.8112 23.5236C15.5812 23.5778 15.1901 23.5928 12.0551 23.5928C8.92006 23.5928 8.52891 23.5813 7.29891 23.5236C6.07006 23.4659 5.23352 23.272 4.49737 22.987C3.72698 22.698 3.02913 22.2439 2.45276 21.6566C1.86592 21.0799 1.41191 20.3822 1.12237 19.612C0.836217 18.877 0.643525 18.0393 0.585832 16.8105C0.531602 15.5805 0.516602 15.1893 0.516602 12.0543C0.516602 8.91933 0.52814 8.52818 0.585832 7.29818C0.643525 6.06818 0.836217 5.23279 1.12237 4.49664C1.4111 3.72608 1.86522 3.02816 2.45276 2.45202C3.0293 1.86498 3.7271 1.41094 4.49737 1.12164C5.23352 0.835485 6.06891 0.642792 7.29891 0.5851C8.52891 0.530869 8.92006 0.515869 12.0551 0.515869Z" fill="#14469D"/>
<path d="M19.149 8.72962C18.9692 8.57248 18.2795 8.57684 17.5981 8.58121C17.0787 8.55932 16.5584 8.58416 16.043 8.65542C15.8925 8.71653 15.5581 9.55898 15.1275 10.4233C14.6343 11.4054 14.0281 12.3482 13.6435 12.3395C13.1461 12.3395 13.2589 10.7201 13.2882 9.54152C13.3091 8.75581 13.1879 8.51137 13.0792 8.4328C12.7635 8.27143 12.431 8.14841 12.0885 8.06613C12.0885 8.06613 9.92724 7.89153 9.6179 8.87803C10.0359 8.93477 10.7424 8.79509 10.454 11.8244C10.454 11.9728 10.1237 13.2213 9.11208 11.532C8.86126 11.0955 7.89144 8.58994 7.56119 8.58121C6.44087 8.55065 5.34145 8.50263 4.9485 8.72962C4.55556 8.9566 5.43342 10.6808 6.85472 13.0074C8.01684 14.9062 9.24585 16.3903 11.3694 16.7657C11.7666 16.805 12.8158 16.8573 13.1377 16.6915C13.3593 16.578 13.0875 14.9454 13.8442 14.7752C14.1828 14.7054 15.4703 16.4863 15.9594 16.6915C16.4903 16.8316 17.0394 16.8818 17.5855 16.8399C18.3087 16.8137 19.1281 16.9054 19.2075 16.4034C19.3831 15.2641 17.017 13.7843 16.946 13.0816C16.8958 12.5796 17.8113 11.6498 18.2878 10.9427C18.8814 10.0828 19.5085 9.04827 19.149 8.72962Z" fill="#14469D"/>
</svg>
