<svg width="25" height="25" viewBox="0 0 25 25" fill="none" xmlns="http://www.w3.org/2000/svg">
<path d="M12.1078 8.59279C11.1897 8.59279 10.3093 8.95749 9.66012 9.60666C9.01095 10.2558 8.64626 11.1363 8.64626 12.0543C8.64626 12.9724 9.01095 13.8528 9.66012 14.502C10.3093 15.1512 11.1897 15.5159 12.1078 15.5159C13.0259 15.5159 13.9063 15.1512 14.5555 14.502C15.2046 13.8528 15.5693 12.9724 15.5693 12.0543C15.5693 11.1363 15.2046 10.2558 14.5555 9.60666C13.9063 8.95749 13.0259 8.59279 12.1078 8.59279ZM12.1078 6.2851C13.6379 6.2851 15.1053 6.89293 16.1873 7.97487C17.2692 9.05681 17.877 10.5242 17.877 12.0543C17.877 13.5844 17.2692 15.0519 16.1873 16.1338C15.1053 17.2157 13.6379 17.8236 12.1078 17.8236C10.5777 17.8236 9.11028 17.2157 8.02834 16.1338C6.94639 15.0519 6.33857 13.5844 6.33857 12.0543C6.33857 10.5242 6.94639 9.05681 8.02834 7.97487C9.11028 6.89293 10.5777 6.2851 12.1078 6.2851ZM19.6078 5.99664C19.6078 6.37916 19.4558 6.74602 19.1854 7.01651C18.9149 7.28699 18.548 7.43895 18.1655 7.43895C17.783 7.43895 17.4161 7.28699 17.1456 7.01651C16.8751 6.74602 16.7232 6.37916 16.7232 5.99664C16.7232 5.61412 16.8751 5.24726 17.1456 4.97677C17.4161 4.70629 17.783 4.55433 18.1655 4.55433C18.548 4.55433 18.9149 4.70629 19.1854 4.97677C19.4558 5.24726 19.6078 5.61412 19.6078 5.99664ZM12.1078 2.82356C9.25318 2.82356 8.78703 2.83164 7.45895 2.89049C6.55434 2.93318 5.94741 3.05433 5.38434 3.27356C4.88357 3.46741 4.52241 3.69933 4.13818 4.08472C3.77704 4.43364 3.49936 4.85962 3.32587 5.33087C3.10664 5.89625 2.98549 6.50202 2.94395 7.40549C2.88395 8.67933 2.87703 9.12472 2.87703 12.0543C2.87703 14.9089 2.88511 15.3751 2.94395 16.7032C2.98664 17.6066 3.1078 18.2147 3.32587 18.7766C3.52203 19.2786 3.7528 19.6397 4.13587 20.0228C4.52472 20.4105 4.88587 20.6424 5.38203 20.834C5.95203 21.0543 6.55895 21.1766 7.45895 21.2182C8.7328 21.2782 9.17818 21.2851 12.1078 21.2851C14.9624 21.2851 15.4286 21.277 16.7566 21.2182C17.659 21.1755 18.267 21.0543 18.8301 20.8363C19.3297 20.6413 19.6932 20.4093 20.0763 20.0263C20.4651 19.6374 20.697 19.2763 20.8886 18.7801C21.1078 18.2113 21.2301 17.6032 21.2716 16.7032C21.3316 15.4293 21.3386 14.9839 21.3386 12.0543C21.3386 9.19972 21.3305 8.73356 21.2716 7.40549C21.229 6.50318 21.1078 5.89395 20.8886 5.33087C20.7147 4.8601 20.4375 4.43429 20.0774 4.08472C19.7286 3.72338 19.3026 3.44568 18.8313 3.27241C18.2659 3.05318 17.659 2.93202 16.7566 2.89049C15.4828 2.83049 15.0374 2.82356 12.1078 2.82356ZM12.1078 0.515869C15.2428 0.515869 15.634 0.527408 16.864 0.5851C18.0928 0.642792 18.9293 0.835485 19.6655 1.12164C20.427 1.41472 21.0686 1.81164 21.7101 2.45202C22.2968 3.02883 22.7508 3.72655 23.0405 4.49664C23.3255 5.23164 23.5193 6.06933 23.577 7.29818C23.6313 8.52818 23.6463 8.91933 23.6463 12.0543C23.6463 15.1893 23.6347 15.5805 23.577 16.8105C23.5193 18.0393 23.3255 18.8759 23.0405 19.612C22.7517 20.3825 22.2976 21.0804 21.7101 21.6566C21.1331 22.2432 20.4355 22.6971 19.6655 22.987C18.9305 23.272 18.0928 23.4659 16.864 23.5236C15.634 23.5778 15.2428 23.5928 12.1078 23.5928C8.9728 23.5928 8.58164 23.5813 7.35164 23.5236C6.1228 23.4659 5.28626 23.272 4.5501 22.987C3.77971 22.698 3.08187 22.2439 2.50549 21.6566C1.91865 21.0799 1.46464 20.3822 1.17511 19.612C0.888951 18.877 0.696259 18.0393 0.638567 16.8105C0.584336 15.5805 0.569336 15.1893 0.569336 12.0543C0.569336 8.91933 0.580874 8.52818 0.638567 7.29818C0.696259 6.06818 0.888951 5.23279 1.17511 4.49664C1.46384 3.72608 1.91796 3.02816 2.50549 2.45202C3.08203 1.86498 3.77983 1.41094 4.5501 1.12164C5.28626 0.835485 6.12164 0.642792 7.35164 0.5851C8.58164 0.530869 8.9728 0.515869 12.1078 0.515869Z" fill="#14469D"/>
</svg>
