<svg width="130" height="130" viewBox="0 0 130 130" fill="none" xmlns="http://www.w3.org/2000/svg">
<g clip-path="url(#clip0_1258_5935)">
<path fill-rule="evenodd" clip-rule="evenodd" d="M68.2227 39.0327H92.6641C108.48 39.0327 120.929 42.7155 129.998 50.0811V124.356C127.519 126.526 124.825 128.404 121.918 130.001H68.2227V39.0327ZM91.5114 115.624H93.8898C112.444 115.624 121.722 106.003 121.722 86.791C121.722 78.1041 119.315 71.4751 114.558 66.8646C109.796 62.2765 102.948 59.9656 94.0416 59.9656H91.5171V115.624H91.5114Z" fill="#FFCA01"/>
<path fill-rule="evenodd" clip-rule="evenodd" d="M42.2813 130C26.15 120.981 15.2422 103.736 15.2422 83.9393H40.1334C40.1334 99.3171 52.6044 111.788 67.9821 111.788V130H42.2813ZM14.6799 50.8615C14.337 40.0324 22.8383 30.98 33.6674 30.6371C44.4966 30.2997 53.5489 38.8011 53.8919 49.6246C54.2349 60.4537 45.7335 69.5061 34.9044 69.849C24.0753 70.1864 15.0229 61.6907 14.6856 50.8615H14.6799Z" fill="#14469D"/>
</g>
<defs>
<clipPath id="clip0_1258_5935">
<rect width="130" height="130" fill="white"/>
</clipPath>
</defs>
</svg>
