<svg width="130" height="130" viewBox="0 0 130 130" fill="none" xmlns="http://www.w3.org/2000/svg">
<g opacity="0.1" clip-path="url(#clip0_1258_6064)">
<path fill-rule="evenodd" clip-rule="evenodd" d="M51.5667 130C35.4619 120.941 24.6221 103.752 24.6221 84.0083H49.4761C49.4761 96.7063 58.0706 107.469 69.6846 110.721L62.0968 130H51.5667ZM24.0801 50.9469C23.6929 40.1071 32.2099 31.0482 43.0497 30.661C53.8895 30.3513 62.9485 38.8683 63.2582 49.7081C63.6453 60.4704 55.1283 69.5294 44.2885 69.9165C33.4487 70.2262 24.3898 61.7093 24.0801 50.9469Z" fill="white"/>
<path fill-rule="evenodd" clip-rule="evenodd" d="M123.496 130L120.012 120.708H88.9639L85.6345 130H62.0967L98.3325 37.939H111.573L130 84.6275V130H123.496ZM113.508 102.591L104.527 77.8139L95.5452 102.591H113.508Z" fill="#FFCA01"/>
</g>
<defs>
<clipPath id="clip0_1258_6064">
<rect width="130" height="130" fill="white"/>
</clipPath>
</defs>
</svg>
