<svg width="130" height="130" viewBox="0 0 130 130" fill="none" xmlns="http://www.w3.org/2000/svg">
<path fill-rule="evenodd" clip-rule="evenodd" d="M29.6409 130C13.2698 121.088 2.22656 103.748 2.22656 83.8897H27.0254C27.0254 99.1952 39.5216 111.595 54.8272 111.595V130H29.6409Z" fill="#14469D"/>
<path fill-rule="evenodd" clip-rule="evenodd" d="M1.64597 50.8569C1.35536 40.1043 9.78308 30.9985 20.6326 30.7079C31.3852 30.3204 40.3941 38.845 40.7816 49.5976C41.0722 60.4471 32.6445 69.456 21.795 69.8435C11.0424 70.1341 2.03345 61.7064 1.64597 50.8569Z" fill="#14469D"/>
<path d="M128.741 130L123.219 90.38L110.045 130H94.6425L81.0806 90.1863L74.8809 130H51.5352L67.325 38.9419H82.5337L103.845 92.7049L122.347 38.9419H130V130H128.741Z" fill="#FFCA01"/>
</svg>
