<svg width="130" height="130" viewBox="0 0 130 130" fill="none" xmlns="http://www.w3.org/2000/svg">
<g opacity="0.2" clip-path="url(#clip0_1258_6053)">
<path d="M51.8765 123.342C51.18 125.57 50.9794 127.827 51.1967 129.995H85.9507L87.2769 126.245C91.0604 115.563 102.194 109.221 113.466 111.333L118.805 112.336C122.755 113.077 126.672 112.403 129.994 110.648V81.0316C128.511 80.2515 126.884 79.672 125.135 79.3432L98.7668 74.4062C81.7269 71.2189 64.988 81.1765 59.9005 97.531L51.8709 123.336L51.8765 123.342Z" fill="#1FE385"/>
<path d="M111.016 52.1612C114.025 42.4933 107.845 32.3909 97.7704 30.5019C89.4065 28.9361 81.1373 33.6447 78.3289 41.5739L75.6097 49.2525C71.8261 59.9344 60.6928 66.2756 49.4202 64.1637L44.082 63.1663C35.6513 61.5894 27.3487 66.4483 24.7186 74.5058C21.5814 84.1179 27.6941 94.2705 37.7464 96.1539L64.1142 101.091C81.154 104.278 97.893 94.3262 102.98 77.9717L111.01 52.1667L111.016 52.1612Z" fill="#3DC2FB"/>
<path fill-rule="evenodd" clip-rule="evenodd" d="M103.8 75.3509L98.7738 74.4092C81.734 71.2218 64.995 81.1794 59.9076 97.5339L59.0996 100.142L64.1258 101.083C81.1656 104.271 97.9046 94.3187 102.992 77.9642L103.8 75.3564V75.3509Z" fill="#1594CD"/>
</g>
<defs>
<clipPath id="clip0_1258_6053">
<rect width="130" height="130" fill="white"/>
</clipPath>
</defs>
</svg>
