<svg width="130" height="130" viewBox="0 0 130 130" fill="none" xmlns="http://www.w3.org/2000/svg">
<g clip-path="url(#clip0_1258_5923)">
<path d="M51.8775 123.341C51.181 125.57 50.9804 127.827 51.1977 129.995H85.9517L87.2778 126.245C91.0614 115.563 102.195 109.221 113.467 111.333L118.805 112.336C122.756 113.077 126.673 112.403 129.995 110.648V81.0316C128.512 80.2515 126.885 79.6719 125.136 79.3432L98.7678 74.4062C81.7279 71.2189 64.9889 81.1764 59.9015 97.5309L51.8719 123.336L51.8775 123.341Z" fill="#1FE385"/>
<path d="M111.016 52.161C114.025 42.4932 107.845 32.3907 97.7704 30.5017C89.4065 28.9359 81.1373 33.6445 78.3289 41.5737L75.6097 49.2523C71.8261 59.9342 60.6928 66.2754 49.4202 64.1635L44.082 63.1661C35.6513 61.5892 27.3487 66.4482 24.7186 74.5056C21.5814 84.1177 27.6941 94.2703 37.7464 96.1537L64.1142 101.091C81.154 104.278 97.893 94.326 102.98 77.9715L111.01 52.1665L111.016 52.161Z" fill="#3DC2FB"/>
<path fill-rule="evenodd" clip-rule="evenodd" d="M103.8 75.3505L98.7738 74.4088C81.734 71.2215 64.995 81.179 59.9076 97.5335L59.0996 100.141L64.1258 101.083C81.1656 104.27 97.9046 94.3183 102.992 77.9639L103.8 75.3561V75.3505Z" fill="#1594CD"/>
</g>
<defs>
<clipPath id="clip0_1258_5923">
<rect width="130" height="130" fill="white"/>
</clipPath>
</defs>
</svg>
