<svg width="20" height="20" viewBox="0 0 20 20" fill="none" xmlns="http://www.w3.org/2000/svg">
<path fill-rule="evenodd" clip-rule="evenodd" d="M13.8202 12.1817H12.954L12.6529 11.8828C13.7165 10.6425 14.3635 9.03446 14.3635 7.27264C14.3635 3.35627 11.1889 0.181728 7.27255 0.181728C3.35619 0.181728 0.181641 3.35627 0.181641 7.27264C0.181641 11.189 3.35619 14.3635 7.27255 14.3635C9.03437 14.3635 10.6413 13.7177 11.8816 12.6552L12.1827 12.9541V13.8181L17.6351 19.2628L19.2616 17.6363L13.8202 12.1817ZM7.27255 12.1817C4.56055 12.1817 2.36346 9.98464 2.36346 7.27264C2.36346 4.56173 4.56055 2.36355 7.27255 2.36355C9.98346 2.36355 12.1816 4.56173 12.1816 7.27264C12.1816 9.98464 9.98346 12.1817 7.27255 12.1817Z" fill="#3B3B3B"/>
</svg>
