<svg width="50" height="51" viewBox="0 0 50 51" fill="none" xmlns="http://www.w3.org/2000/svg">
<g filter="url(#filter0_d_1258_12074)">
<path fill-rule="evenodd" clip-rule="evenodd" d="M30.4926 26.2786C30.4948 26.2742 30.4991 26.2677 30.5013 26.2634L30.5491 26.4416L30.4926 26.2786ZM33.7426 38.1742C33.7426 37.9481 33.8144 37.7286 33.9426 37.5438L35.7861 34.9481C36.5557 33.8634 36.9644 32.5829 36.9644 31.246V20.646C36.9644 16.1351 36.4839 15.3916 34.8426 15.2525V18.4721C34.8426 19.0742 34.3578 19.559 33.7557 19.559C33.1557 19.559 32.6687 19.0742 32.6687 18.4721V14.2873C32.5426 13.9047 32.0426 12.8677 30.3687 12.8894V18.4721C30.3687 19.0742 29.8818 19.559 29.2818 19.559C28.6796 19.559 28.1948 19.0742 28.1948 18.4721V12.1612C27.9905 11.8003 27.3883 10.9612 26.2709 10.8634V18.4721C26.2709 19.0742 25.7839 19.559 25.1839 19.559C24.5818 19.559 24.097 19.0742 24.097 18.4721V11.0286C24.0948 11.0025 24.0818 10.9808 24.0818 10.9547V6.51554C24.0818 5.30249 23.2405 4.37206 22.1252 4.34814C20.9361 4.37423 19.8122 5.40684 19.8122 6.51554V22.0742C19.8122 22.5351 19.5231 22.9438 19.0905 23.0981C18.6644 23.2547 18.1752 23.1177 17.8839 22.7655L14.5644 18.7177C14.1818 18.3351 13.6078 18.0851 13.0165 18.0851H13.0144C12.4231 18.0851 11.8491 18.3351 11.397 18.7916C10.6839 19.5155 10.71 20.7286 11.4535 21.496L14.4535 25.7916C15.7991 27.7242 16.8818 29.8351 17.6687 32.0612C18.3839 34.2438 20.0578 37.4373 21.4035 37.4373C22.0013 37.4373 22.4883 37.9221 22.4905 38.5221L22.4926 40.2112H33.7426V38.7634V38.1742Z" fill="white"/>
<mask id="mask0_1258_12074" style="mask-type:alpha" maskUnits="userSpaceOnUse" x="39" y="19" width="1" height="3">
<path fill-rule="evenodd" clip-rule="evenodd" d="M39.3152 19.3091V21.483H39.0944V19.3091H39.3152V19.3091Z" fill="white"/>
</mask>
<g mask="url(#mask0_1258_12074)">
<path fill-rule="evenodd" clip-rule="evenodd" d="M39.0944 19.3091C39.1052 19.5547 39.1139 19.8026 39.1183 20.0678C39.1139 19.8069 39.1074 19.5482 39.0944 19.3091Z" fill="white"/>
</g>
<mask id="mask1_1258_12074" style="mask-type:alpha" maskUnits="userSpaceOnUse" x="18" y="45" width="3" height="2">
<path fill-rule="evenodd" clip-rule="evenodd" d="M20.3059 46.734H18.132L18.132 45.2964H20.3059V46.734Z" fill="white"/>
</mask>
<g mask="url(#mask1_1258_12074)">
<path fill-rule="evenodd" clip-rule="evenodd" d="M18.132 45.2964C18.4841 45.816 18.982 46.2312 19.5667 46.4768C18.982 46.2312 18.4841 45.816 18.132 45.2964Z" fill="white"/>
</g>
<mask id="mask2_1258_12074" style="mask-type:alpha" maskUnits="userSpaceOnUse" x="37" y="40" width="3" height="3">
<path fill-rule="evenodd" clip-rule="evenodd" d="M39.3153 40.4685V42.6424H37.3229V40.4685H39.3153V40.4685Z" fill="white"/>
</mask>
<g mask="url(#mask2_1258_12074)">
<path fill-rule="evenodd" clip-rule="evenodd" d="M37.3229 40.4685C37.712 40.6337 38.0642 40.8729 38.3598 41.1663C38.0642 40.8729 37.712 40.6337 37.3229 40.4685Z" fill="white"/>
</g>
<path fill-rule="evenodd" clip-rule="evenodd" d="M19.567 40.4685C18.9822 40.7163 18.4844 41.1294 18.1322 41.6489C18.4844 41.1294 18.9822 40.7163 19.567 40.4685Z" fill="white"/>
<path fill-rule="evenodd" clip-rule="evenodd" d="M36.0533 42.3862H34.7837H21.4098H20.8359C20.2359 42.3862 19.749 42.8732 19.749 43.4732C19.749 44.0732 20.2359 44.5601 20.8359 44.5601H36.0533C36.6533 44.5601 37.1403 44.0732 37.1403 43.4732C37.1403 42.8732 36.6533 42.3862 36.0533 42.3862Z" fill="white"/>
<mask id="mask3_1258_12074" style="mask-type:alpha" maskUnits="userSpaceOnUse" x="37" y="45" width="3" height="2">
<path fill-rule="evenodd" clip-rule="evenodd" d="M39.3152 45.7791V46.7341H37.3224L37.3224 45.7791H39.3152V45.7791Z" fill="white"/>
</mask>
<g mask="url(#mask3_1258_12074)">
<path fill-rule="evenodd" clip-rule="evenodd" d="M38.3593 45.7791C38.0637 46.0747 37.7137 46.3138 37.3224 46.4769C37.7137 46.3138 38.0637 46.0747 38.3593 45.7791Z" fill="white"/>
</g>
<mask id="mask4_1258_12074" style="mask-type:alpha" maskUnits="userSpaceOnUse" x="8" y="2" width="32" height="45">
<path fill-rule="evenodd" clip-rule="evenodd" d="M24.0049 46.734H8.69568V2.1731H24.0049H39.3142V46.734H24.0049Z" fill="white"/>
</mask>
<g mask="url(#mask4_1258_12074)">
<path fill-rule="evenodd" clip-rule="evenodd" d="M36.0533 44.5601H20.8359C20.2359 44.5601 19.7489 44.0731 19.7489 43.4731C19.7489 42.8731 20.2359 42.3861 20.8359 42.3861H21.4098H34.7837H36.0533C36.6533 42.3861 37.1402 42.8731 37.1402 43.4731C37.1402 44.0731 36.6533 44.5601 36.0533 44.5601ZM22.4946 40.2122L22.4902 38.5209C22.488 37.9209 22.0011 37.4361 21.4033 37.4361C20.0598 37.4361 18.3837 34.2427 17.6685 32.0622C16.8815 29.834 15.8011 27.7231 14.4533 25.7927L11.4554 21.497C10.7098 20.7296 10.6837 19.5144 11.3967 18.7927C11.8489 18.3361 12.4228 18.084 13.0141 18.084H13.0163C13.6076 18.084 14.1815 18.3361 14.5641 18.7188L17.8859 22.7644C18.175 23.1187 18.6641 23.2557 19.0902 23.097C19.5228 22.9427 19.812 22.534 19.812 22.0753V6.51657C19.812 5.4057 20.9359 4.3731 22.125 4.34701C23.2402 4.37092 24.0815 5.30353 24.0815 6.51657V10.9557C24.0815 10.9818 24.0946 11.0035 24.0967 11.0274V18.4731C24.0967 19.0731 24.5837 19.5601 25.1837 19.5601C25.7837 19.5601 26.2706 19.0731 26.2706 18.4731V10.8622C27.388 10.9622 27.9902 11.7992 28.1946 12.1622V18.4731C28.1946 19.0731 28.6793 19.5601 29.2815 19.5601C29.8815 19.5601 30.3685 19.0731 30.3685 18.4731V12.8883C32.0424 12.8687 32.5424 13.9057 32.6685 14.2861V18.4731C32.6685 19.0731 33.1554 19.5601 33.7554 19.5601C34.3576 19.5601 34.8424 19.0731 34.8424 18.4731V15.2535C36.4837 15.3927 36.9641 16.1361 36.9641 20.647V31.2448C36.9641 32.584 36.5554 33.8644 35.7859 34.9492L33.9424 37.5448C33.8141 37.7296 33.7446 37.9492 33.7446 38.1731V38.7622V40.2122H22.4946ZM38.3598 41.1666C38.0641 40.8731 37.712 40.634 37.3228 40.4688C36.9337 40.3035 36.5033 40.2122 36.0533 40.2122H35.9185V38.7622V38.5209L37.5598 36.2079C38.5924 34.7514 39.1381 33.0361 39.1381 31.2448V20.647C39.1381 20.4318 39.1228 20.2709 39.1185 20.0688C39.1141 19.8035 39.1054 19.5557 39.0946 19.3079C38.8794 14.2209 37.412 13.2101 34.5098 13.0622C33.8989 11.8601 32.4685 10.5057 29.8598 10.734C29.3533 9.99484 28.3294 8.99918 26.712 8.76223C26.5772 8.70136 26.4294 8.6644 26.2707 8.6644H26.2554V6.51657C26.2554 4.12744 24.462 2.22092 22.125 2.1731C19.6946 2.2231 17.6381 4.21223 17.6381 6.51657V19.0405L16.1772 17.2644C15.3185 16.3905 14.1946 15.9101 13.0163 15.9101H13.0141C11.8381 15.9101 10.7141 16.3905 9.8511 17.2644C8.31197 18.8231 8.33153 21.3992 9.78153 22.8731L12.6707 27.0318C13.9054 28.8057 14.8967 30.7427 15.6098 32.7622C15.9424 33.7774 17.5859 38.3905 20.3185 39.4101L20.3207 40.2644C20.0576 40.3057 19.8033 40.3688 19.5663 40.4688C18.9815 40.7166 18.4837 41.1296 18.1315 41.6492C17.7794 42.1709 17.575 42.797 17.575 43.4731C17.575 44.1492 17.7794 44.7753 18.1315 45.297C18.4837 45.8166 18.9815 46.2296 19.5663 46.4774C19.9576 46.6427 20.3859 46.734 20.8359 46.734H36.0533C36.5033 46.734 36.9337 46.6427 37.3228 46.4774C37.712 46.3122 38.0641 46.0731 38.3598 45.7796C38.9489 45.1883 39.3141 44.3731 39.3141 43.4731C39.3141 42.5731 38.9489 41.7579 38.3598 41.1666Z" fill="#14469D"/>
</g>
</g>
<defs>
<filter id="filter0_d_1258_12074" x="5.69568" y="0.173096" width="36.6185" height="50.5608" filterUnits="userSpaceOnUse" color-interpolation-filters="sRGB">
<feFlood flood-opacity="0" result="BackgroundImageFix"/>
<feColorMatrix in="SourceAlpha" type="matrix" values="0 0 0 0 0 0 0 0 0 0 0 0 0 0 0 0 0 0 127 0" result="hardAlpha"/>
<feOffset dy="1"/>
<feGaussianBlur stdDeviation="1.5"/>
<feColorMatrix type="matrix" values="0 0 0 0 0 0 0 0 0 0 0 0 0 0 0 0 0 0 0.2 0"/>
<feBlend mode="normal" in2="BackgroundImageFix" result="effect1_dropShadow_1258_12074"/>
<feBlend mode="normal" in="SourceGraphic" in2="effect1_dropShadow_1258_12074" result="shape"/>
</filter>
</defs>
</svg>
