<svg width="123" height="34" viewBox="0 0 123 34" fill="none" xmlns="http://www.w3.org/2000/svg">
<path fill-rule="evenodd" clip-rule="evenodd" d="M14.7914 1.98915C22.8734 1.98915 29.425 8.56613 29.425 16.679H22.5182C22.5182 12.3952 19.0586 8.92251 14.7913 8.92251L14.7914 1.98915ZM14.7916 31.3691C6.70964 31.3691 0.15804 24.7922 0.15804 16.6792H7.06481C7.06481 20.963 10.5244 24.4359 14.7917 24.4359L14.7916 31.3691ZM0.00275521 7.4659C-0.0919555 4.45017 2.26681 1.92834 5.27111 1.83356C8.27527 1.73877 10.7874 4.10633 10.8819 7.1222C10.9763 10.1379 8.61766 12.6598 5.61335 12.7545C2.60933 12.8493 0.0973207 10.4818 0.00275521 7.4659ZM94.1051 20.5039L89.0935 20.5036C88.92 20.5036 88.8334 20.5905 88.8334 20.7647V31.1867C88.8334 31.3606 88.92 31.4475 89.0935 31.4475H89.8937C90.067 31.4475 90.1537 31.3606 90.1537 31.1867V28.1744H94.0945C95.1413 28.1744 96.2324 27.8059 96.9951 27.07C97.7524 26.3659 98.1353 25.3881 98.1353 24.3592C98.1353 23.3132 97.7468 22.3744 96.9951 21.648C96.1843 20.865 95.2279 20.5039 94.1051 20.5039ZM45.8258 3.05C47.8035 3.05 49.5418 4.07891 50.5386 5.63249C50.6294 5.77336 50.5702 5.90139 50.4811 5.97269L49.1049 7.02523C48.9724 7.12585 48.8312 7.04433 48.7728 6.95524C48.1826 5.93741 47.0839 5.25307 45.8258 5.25307C43.9439 5.25307 42.4181 6.78448 42.4181 8.67389C42.4181 10.563 43.9437 12.0947 45.8258 12.0947C47.0752 12.0947 48.1717 11.422 48.7605 10.4131C48.833 10.2889 48.9662 10.1766 49.1547 10.3223L50.5046 11.3548C50.6161 11.4398 50.6383 11.5562 50.5722 11.6622C49.5848 13.2477 47.8259 14.2979 45.8256 14.2979C42.7315 14.2979 40.2233 11.78 40.2233 8.67403C40.2233 5.56804 42.7317 3.05 45.8258 3.05ZM57.6216 5.25321C59.5719 5.25321 61.1529 6.78463 61.1529 8.67403C61.1529 10.5631 59.5719 12.0949 57.6216 12.0949C55.6713 12.0949 54.0901 10.5633 54.0901 8.67403C54.0901 6.78477 55.6713 5.25321 57.6216 5.25321ZM57.6215 3.05C60.784 3.05 63.3477 5.56789 63.3477 8.67389C63.3477 11.7799 60.784 14.2978 57.6215 14.2978C54.4591 14.2978 51.8954 11.7799 51.8954 8.67389C51.8954 5.56789 54.4591 3.05 57.6215 3.05ZM67.4294 0H65.6894C65.5025 0 65.4092 0.0937631 65.4092 0.281289V13.8561C65.4092 14.0021 65.5196 14.1372 65.6691 14.1372H67.4294C67.6162 14.1372 67.7096 14.0435 67.7096 13.8561V0.281289C67.7096 0.0937631 67.6162 0 67.4294 0ZM75.3206 3.05C78.9591 3.05 80.9523 5.56833 80.9523 8.67389V9.42924C80.9523 9.73794 80.7412 9.71928 80.5596 9.71928H78.5685H72.0419C72.4434 11.1482 73.6712 12.0946 75.2426 12.0946C76.5553 12.0946 77.9068 11.9143 78.9651 11.0289C79.0936 10.9213 79.2045 10.8218 79.3551 11.0156L80.2435 12.2232C80.3377 12.3511 80.2903 12.4944 80.1824 12.5847C79.091 13.537 77.6855 14.2978 75.3209 14.2978C72.0198 14.2978 69.6892 11.7799 69.6892 8.67389C69.6892 5.56789 71.6821 3.05 75.3206 3.05ZM78.4831 7.61085C78.142 6.09766 76.956 5.25321 75.2423 5.25321C73.5167 5.25321 72.37 6.10641 72.0171 7.61085H78.4831ZM82.9527 3.4739V13.8358C82.9527 14.0366 83.0262 14.1372 83.1729 14.1372H85.0132C85.1865 14.1372 85.2731 14.0435 85.2731 13.8561V6.64683C85.8464 5.70963 86.64 5.24125 87.6538 5.24125C88.3339 5.24125 88.8538 5.44205 89.214 5.84379C89.574 6.24538 89.754 6.82079 89.754 7.5706V13.8158C89.754 14.0166 89.8542 14.1172 90.0542 14.1172H91.7744C91.9743 14.1172 92.0744 14.0235 92.0744 13.836V7.53036C92.0744 7.18272 92.0867 6.82429 91.9945 6.48642C92.2879 6.0981 92.6278 5.79013 93.0147 5.5625C93.388 5.34829 93.8482 5.24125 94.3949 5.24125C95.0084 5.24125 95.5219 5.43563 95.9352 5.82352C96.3353 6.21169 96.5354 6.79396 96.5354 7.5706V13.8158C96.5354 14.0166 96.6356 14.1172 96.8356 14.1172H98.5558C98.7757 14.1172 98.8758 14.0432 98.8758 13.8158V7.46999C98.8758 6.7069 98.7625 6.03773 98.5359 5.46217C98.3093 4.89989 98.0092 4.43763 97.6356 4.07658C97.2759 3.7285 96.8221 3.46078 96.2755 3.27325C95.7687 3.09914 95.2287 3.01223 94.6552 3.01223C94.0552 3.01223 93.435 3.14595 92.7949 3.41382C92.1681 3.68155 91.6278 4.08314 91.1745 4.61874C90.8811 4.15007 90.461 3.76175 89.9142 3.45421C89.3808 3.15966 88.7804 3.01238 88.1138 3.01238C86.9404 3.01238 86.0136 3.41397 85.3334 4.2173H85.2134L85.0133 3.43424C84.9733 3.25998 84.8798 3.17293 84.7331 3.17293H83.2927C82.9582 3.17293 82.9527 3.33741 82.9527 3.4739ZM104.437 9.35764L105.832 9.12681L107.957 8.77538V10.6028C107.611 11.0715 107.171 11.4459 106.637 11.7275C106.091 12.0085 105.437 12.1492 104.677 12.1492C104.05 12.1492 103.59 12.0288 103.297 11.7876C102.717 11.3112 102.719 10.4195 103.237 9.9001C103.49 9.64579 103.89 9.46511 104.437 9.35764ZM108.258 12.8719L108.277 12.852H108.378L108.878 14.1171C108.944 14.2911 109.058 14.3446 109.218 14.2777L110.638 13.8158C110.839 13.7867 110.87 13.5828 110.818 13.4142L110.558 12.5707C110.454 12.207 110.391 11.8403 110.338 11.4664C110.298 11.0913 110.278 10.7033 110.278 10.3014V6.80752C110.278 6.12479 110.158 5.54252 109.918 5.06044C109.691 4.59177 109.357 4.20344 108.917 3.89591C108.491 3.60135 108.01 3.38014 107.477 3.23315C106.957 3.09929 106.397 3.03235 105.797 3.03235C104.823 3.03235 103.957 3.16636 103.196 3.43409C102.45 3.70167 101.749 4.08314 101.096 4.57879C100.971 4.7039 100.915 4.89449 101.036 5.04046L101.816 6.14476C101.932 6.28942 102.168 6.30473 102.316 6.20513C102.78 5.90984 103.398 5.61849 103.917 5.46232C104.864 5.16091 106.38 5.09062 107.297 5.52269C107.671 5.6984 107.881 5.97663 107.927 6.35737C107.943 6.49051 107.937 6.63312 107.937 6.76757L104.417 7.22967C103.203 7.39022 102.243 7.78525 101.536 8.41433C100.843 9.03013 100.496 9.85344 100.496 10.8841C100.496 11.393 100.596 11.8551 100.796 12.2698C100.996 12.6983 101.262 13.0599 101.596 13.3545C101.956 13.6757 102.363 13.9099 102.816 14.0572C103.296 14.2177 103.823 14.2982 104.397 14.2982C105.196 14.2982 105.917 14.1778 106.557 13.9367C107.17 13.7091 107.738 13.354 108.258 12.8719ZM112.858 3.47375V13.8559C112.858 14.0433 112.952 14.1371 113.139 14.1371H114.899C115.086 14.1371 115.179 14.0433 115.179 13.8559V6.64668C115.539 6.19157 115.986 5.8435 116.519 5.60245C117.053 5.36141 117.599 5.24096 118.159 5.24096C118.92 5.24096 119.527 5.45517 119.98 5.88345C120.42 6.31202 120.64 6.98805 120.64 7.91168V13.8559C120.64 14.0433 120.727 14.1371 120.9 14.1371H122.66C122.86 14.1371 122.961 14.0433 122.961 13.8559V7.89185C122.961 7.08837 122.847 6.37881 122.62 5.76315C122.196 4.59118 121.379 3.75694 120.2 3.35345C119.613 3.15266 118.973 3.05233 118.279 3.05233C117.117 3.05233 116.04 3.44911 115.179 4.23713H115.059L114.879 3.43395C114.839 3.27325 114.732 3.1929 114.559 3.1929H113.139C112.952 3.1929 112.858 3.28652 112.858 3.47375ZM94.0945 26.9694H90.1537V21.7083H94.0945C94.9748 21.7083 95.6483 21.9626 96.115 22.4714C96.5817 22.9801 96.815 23.6025 96.815 24.3386C96.815 25.0886 96.5817 25.7179 96.115 26.2262C95.6615 26.7216 94.988 26.9694 94.0945 26.9694ZM76.811 20.7445V26.7085C76.811 27.4313 76.9199 28.0868 77.1311 28.6763C77.5571 29.8667 78.4244 30.7874 79.5914 31.2667C80.1651 31.5077 80.825 31.6282 81.5721 31.6282C82.3057 31.6282 82.9721 31.5077 83.5725 31.2667C84.7702 30.7746 85.5973 29.8872 86.0528 28.6763C86.2664 28.0872 86.3728 27.438 86.3728 26.7285V20.7843C86.3728 20.6104 86.2864 20.5235 86.113 20.5235H85.3329C85.1461 20.5235 85.0527 20.6104 85.0527 20.7843V26.6884C85.0527 27.2372 84.9728 27.7393 84.8126 28.1943C84.4846 29.1069 83.9351 29.7624 83.0323 30.1423C82.5788 30.3298 82.0786 30.4236 81.532 30.4236C80.9985 30.4236 80.505 30.3298 80.0519 30.1423C79.1613 29.7793 78.5784 29.053 78.2713 28.1543C78.1114 27.6989 78.0312 27.197 78.0312 26.6481V20.7445C78.0312 20.5703 77.9446 20.4831 77.7712 20.4831H77.0714C76.898 20.4831 76.811 20.5703 76.811 20.7445ZM57.8475 26.9694H53.9065V21.7083H57.8475C58.7276 21.7083 59.4077 21.9626 59.888 22.4714C60.3679 22.9801 60.608 23.6025 60.608 24.3386C60.608 25.1021 60.3679 25.731 59.888 26.2262C59.4077 26.7216 58.7275 26.9694 57.8475 26.9694ZM57.8475 20.5035H57.8876H52.8864C52.7131 20.5035 52.6265 20.5904 52.6265 20.7645V31.1865C52.6265 31.3605 52.7131 31.4474 52.8864 31.4474H53.6867C53.86 31.4474 53.9466 31.3605 53.9466 31.1865V28.1743H57.8876H58.1277C58.2343 28.1743 58.3142 28.1674 58.3675 28.1543L59.968 31.2066C60.0614 31.3673 60.1816 31.4475 60.3283 31.4475H61.2885C61.4453 31.4475 61.5194 31.309 61.4482 31.1665L59.5882 27.8331C60.2816 27.5385 60.8416 27.0762 61.2683 26.4473C61.6818 25.8315 61.8884 25.1221 61.8884 24.3188C61.8884 23.7832 61.7886 23.2811 61.5886 22.8126C61.3884 22.3575 61.1083 21.9557 60.7482 21.6077C60.4015 21.2731 59.975 21.0056 59.4682 20.8043C58.9612 20.6035 58.421 20.5035 57.8475 20.5035ZM50.1458 25.544H49.3857C49.1989 25.544 49.1058 25.6309 49.1058 25.805V28.9174C48.6788 29.3859 48.1986 29.7474 47.6654 30.0019C47.1052 30.2696 46.4919 30.4033 45.8247 30.4033C45.2113 30.4033 44.638 30.2897 44.1045 30.0621C43.5578 29.8346 43.1043 29.5265 42.744 29.1382C42.3576 28.7367 42.0574 28.2682 41.844 27.7327C41.6306 27.2107 41.524 26.6284 41.524 25.9858C41.524 25.343 41.6306 24.7607 41.844 24.2386C42.0574 23.7031 42.3575 23.2347 42.744 22.8331C43.1176 22.4312 43.5642 22.1234 44.0845 21.9092C44.6181 21.6817 45.1913 21.568 45.8047 21.568C46.5383 21.568 47.1985 21.7153 47.7853 22.0098C48.3721 22.3044 48.8786 22.7258 49.3055 23.2748C49.4255 23.4221 49.552 23.4354 49.6855 23.3149L50.2456 22.8331C50.3738 22.7363 50.4096 22.6223 50.3058 22.4915C49.1854 21.099 47.6919 20.403 45.8246 20.403C45.0245 20.403 44.2844 20.5434 43.6041 20.8247C42.924 21.1057 42.3308 21.5008 41.8238 22.0097C41.317 22.518 40.9235 23.114 40.6435 23.7969C40.3636 24.4797 40.2234 25.236 40.2234 26.0658C40.2234 26.869 40.3638 27.612 40.6435 28.2949C40.9235 28.9778 41.317 29.5734 41.8238 30.0821C42.3308 30.5908 42.924 30.9859 43.6041 31.2669C44.2844 31.5481 45.0245 31.6886 45.8246 31.6886C46.4649 31.6886 47.065 31.5879 47.625 31.3874C48.1983 31.1866 48.7186 30.8587 49.1852 30.4033L49.3254 31.2669C49.3475 31.421 49.4701 31.5279 49.6254 31.5279H50.1454C50.3189 31.5279 50.4054 31.441 50.4054 31.2669V25.805C50.4054 25.6309 50.3193 25.544 50.1458 25.544ZM69.3095 21.5487C71.6905 21.5487 73.6206 23.5666 73.6206 26.0556C73.6206 28.545 71.6905 30.5628 69.3095 30.5628C66.9287 30.5628 64.9986 28.545 64.9986 26.0556C64.9986 23.5665 66.9287 21.5487 69.3095 21.5487ZM69.3095 20.4434C66.2218 20.4434 63.7185 22.9562 63.7185 26.0558C63.7185 29.1555 66.2218 31.6683 69.3095 31.6683C72.3974 31.6683 74.9005 29.1555 74.9005 26.0558C74.9005 22.9562 72.3974 20.4434 69.3095 20.4434Z" fill="#14469D"/>
<path fill-rule="evenodd" clip-rule="evenodd" d="M18.7871 20.6904H29.5031V31.4477H18.7871V20.6904Z" fill="#FFCA01"/>
</svg>
