<svg width="150" height="150" viewBox="0 0 150 150" fill="none" xmlns="http://www.w3.org/2000/svg">
<path fill-rule="evenodd" clip-rule="evenodd" d="M8.8938 47.4148C8.78763 43.8826 9.73238 40.3984 11.6083 37.4036C13.4843 34.4089 16.207 32.0384 19.4315 30.5926C22.656 29.1467 26.2371 28.6906 29.721 29.282C33.205 29.8734 36.435 31.4857 39.0017 33.9146C41.5685 36.3435 43.3565 39.4797 44.1391 42.9257C44.9217 46.3718 44.6638 49.9726 43.3979 53.2719C42.1321 56.5712 39.9154 59.4205 37.0286 61.4587C34.1419 63.497 30.715 64.6324 27.1824 64.7212C22.4629 64.8487 17.8859 63.0976 14.4567 59.8526C11.0275 56.6076 9.02671 52.1341 8.8938 47.4148ZM57.3585 125.514C44.6396 125.514 32.4416 120.461 23.448 111.468C14.4544 102.474 9.40182 90.2759 9.40182 77.557H32.0254C32.0254 84.2758 34.6944 90.7193 39.4453 95.4702C44.1962 100.221 50.6397 102.89 57.3585 102.89V125.514Z" fill="#14469D"/>
<path fill-rule="evenodd" clip-rule="evenodd" d="M114.493 90.6639H149.614V125.785H114.493V90.6639ZM114.493 44.5361H149.614V79.6569H114.493V44.5361ZM68.3652 44.5361H103.486V79.6569H68.3652V44.5361ZM68.3652 90.6639H103.486V125.785H68.3652V90.6639Z" fill="#FFCA01"/>
</svg>
