<svg width="150" height="150" viewBox="0 0 150 150" fill="none" xmlns="http://www.w3.org/2000/svg">
<path fill-rule="evenodd" clip-rule="evenodd" d="M58.4751 125.785C52.1465 125.798 45.8775 124.563 40.0269 122.15C34.1762 119.738 28.8588 116.195 24.3792 111.725C19.8995 107.255 16.3455 101.945 13.9206 96.0991C11.4956 90.2536 10.2475 83.9871 10.2475 77.6586H32.9388C32.9388 84.3953 35.615 90.8561 40.3785 95.6196C45.1421 100.383 51.6029 103.059 58.3396 103.059L58.4751 125.785ZM9.73947 47.4147C9.62726 43.8791 10.5662 40.3896 12.4376 37.3876C14.3089 34.3857 17.0286 32.0062 20.2525 30.5503C23.4764 29.0943 27.0598 28.6272 30.5492 29.2081C34.0386 29.789 37.2774 31.3918 39.8557 33.8138C42.434 36.2357 44.2361 39.3679 45.034 42.8142C45.8318 46.2605 45.5896 49.866 44.338 53.1747C43.0863 56.4833 40.8815 59.3463 38.0024 61.4016C35.1233 63.457 31.6993 64.6122 28.1635 64.7211C23.4259 64.8672 18.8242 63.1263 15.3695 59.8812C11.9148 56.6361 9.88983 52.1522 9.73947 47.4147Z" fill="#14469D"/>
<path d="M104.602 90.5623H69.3799V125.785H104.602V90.5623Z" fill="#FFCA01"/>
</svg>
