<svg width="150" height="150" viewBox="0 0 150 150" fill="none" xmlns="http://www.w3.org/2000/svg">
<path fill-rule="evenodd" clip-rule="evenodd" d="M57.643 125.785C44.8968 125.758 32.6818 120.676 23.6784 111.653C14.675 102.631 9.61856 90.405 9.61859 77.6587H32.3438C32.3405 83.7405 34.5194 89.6216 38.4845 94.2331C42.4497 98.8446 47.9378 101.88 53.9514 102.789L65.06 125.311C62.606 125.691 60.1264 125.884 57.643 125.886V125.785ZM9.00897 47.4149C8.89701 43.8807 9.83534 40.3927 11.7054 37.3916C13.5754 34.3906 16.2931 32.0114 19.5151 30.5546C22.737 29.0979 26.3185 28.629 29.8069 29.2074C33.2952 29.7857 36.5338 31.3852 39.1133 33.8038C41.6927 36.2223 43.4973 39.3513 44.2988 42.7952C45.1003 46.2391 44.8629 49.8434 43.6164 53.1524C42.3699 56.4614 40.1704 59.3265 37.2959 61.3857C34.4214 63.4449 31.0009 64.6057 27.4669 64.7213C22.726 64.8674 18.1207 63.1276 14.6606 59.8834C11.2005 56.6392 9.16811 52.1553 9.00897 47.4149Z" fill="#14469D"/>
<path d="M131.136 54.9333L95.9472 125.378H77.4554L55.3398 81.1131H78.4376L86.7013 97.6744L108.038 54.9333H131.136Z" fill="#FFCA01"/>
</svg>
