<svg width="150" height="150" viewBox="0 0 150 150" fill="none" xmlns="http://www.w3.org/2000/svg">
<path fill-rule="evenodd" clip-rule="evenodd" d="M9.00803 48.2613C8.90257 44.7603 9.83742 41.3067 11.6944 38.3369C13.5514 35.3672 16.2472 33.0146 19.441 31.5767C22.6347 30.1387 26.1831 29.6799 29.6376 30.2583C33.0921 30.8366 36.2975 32.4262 38.8488 34.826C41.4001 37.2258 43.1826 40.3281 43.971 43.7407C44.7594 47.1534 44.5184 50.7232 43.2784 53.9989C42.0384 57.2746 39.855 60.1091 37.0043 62.1442C34.1536 64.1792 30.7636 65.3235 27.2627 65.4322C24.9364 65.5045 22.6186 65.1175 20.4419 64.2935C18.2651 63.4695 16.2721 62.2246 14.5768 60.6299C12.8815 59.0352 11.5171 57.1221 10.5615 54.9998C9.60601 52.8775 9.07812 50.5877 9.00803 48.2613ZM57.134 125.784C50.8779 125.784 44.6831 124.552 38.9036 122.156C33.1241 119.761 27.8732 116.251 23.451 111.825C19.0289 107.4 15.5221 102.147 13.131 96.3656C10.74 90.5844 9.5116 84.3887 9.51605 78.1326H31.9703C31.9703 84.8064 34.6215 91.2069 39.3406 95.926C44.0597 100.645 50.4602 103.296 57.134 103.296C58.3694 103.293 59.603 103.202 60.8256 103.025L85.041 116.572C76.9491 122.521 67.1772 125.747 57.134 125.784Z" fill="#14469D"/>
<path d="M109.121 49.5821H80.4685V78.0987L94.7945 86.2269L109.121 78.0987V49.5821ZM70.2404 29.0583H129.644V90.0201L94.7945 109.765L59.9785 89.9863V29.0244L70.2404 29.0583Z" fill="#FFCA01"/>
</svg>
