<svg width="160" height="160" viewBox="0 0 160 160" fill="none" xmlns="http://www.w3.org/2000/svg">
<path fill-rule="evenodd" clip-rule="evenodd" d="M127.632 102.313V126.91H110.807C110.807 115.053 110.807 103.115 110.807 91.1768C120.902 89.4943 128.593 80.7612 128.593 70.1853H145.338C145.338 83.7256 138.288 95.5834 127.632 102.313Z" fill="#FFCA01"/>
<path fill-rule="evenodd" clip-rule="evenodd" d="M107.281 56.1643C115.053 56.1643 121.382 62.4137 121.382 70.2655C121.382 78.0371 115.053 84.3666 107.281 84.3666C99.5092 84.3666 93.1797 78.0371 93.1797 70.2655C93.1797 62.4137 99.5092 56.1643 107.281 56.1643Z" fill="#FFCA01"/>
<path fill-rule="evenodd" clip-rule="evenodd" d="M103.756 126.91H86.9312V101.993C76.2752 95.263 69.2246 83.4052 69.2246 69.8649H85.9697C85.9697 80.4407 93.6613 89.1738 103.756 90.8564C103.756 102.874 103.756 114.892 103.756 126.91Z" fill="#FFCA01"/>
<path d="M56.8069 68.1021C52.9612 68.1021 49.516 69.6244 47.0323 72.028V72.1081C44.5485 74.5919 43.0263 78.037 43.0263 81.8027C43.0263 85.6485 44.5485 89.0936 47.0323 91.4972V91.5774C49.516 93.981 52.9612 95.5834 56.8069 95.5834C60.5726 95.5834 64.0177 93.981 66.5015 91.4972C68.9852 89.0936 70.5075 85.6485 70.5075 81.8027C70.5075 78.037 68.9852 74.5919 66.5015 72.1081C64.0177 69.6244 60.5726 68.1021 56.8069 68.1021ZM41.9847 108.563L23.557 126.91L11.6191 115.053L30.0468 96.6249C27.5631 92.2183 26.201 87.1707 26.201 81.8027C26.201 73.3901 29.6462 65.6985 35.1745 60.1702C40.7028 54.6419 48.3943 51.1968 56.8069 51.1968C65.2195 51.1968 72.831 54.6419 78.4394 60.1702C83.9677 65.6985 87.3327 73.3901 87.3327 81.8027C87.3327 90.2153 83.9677 97.8267 78.3593 103.435H78.4394C72.831 108.963 65.2195 112.409 56.8069 112.409C51.4389 112.409 46.3913 110.966 41.9847 108.563Z" fill="#14469D"/>
</svg>
