<svg width="160" height="160" viewBox="0 0 160 160" fill="none" xmlns="http://www.w3.org/2000/svg">
<g opacity="0.1">
<path fill-rule="evenodd" clip-rule="evenodd" d="M48.2842 55.6545C58.2944 55.6545 67.4341 59.7348 74.0169 66.3176L74.0713 66.372C80.6541 73.0092 84.7344 82.0945 84.7344 92.1047C84.7344 102.169 80.6541 111.309 74.0713 117.892H74.0169C67.4341 124.475 58.2944 128.609 48.2842 128.609C38.2196 128.609 29.0798 124.475 22.497 117.892C15.9142 111.309 11.834 102.169 11.834 92.1047C11.834 82.0945 15.9142 72.9548 22.497 66.372V66.3176C29.0798 59.7348 38.2196 55.6545 48.2842 55.6545ZM28.6446 92.1047H48.2842V72.5196C53.7245 72.5196 58.6208 74.6957 62.157 78.2319H62.2114C65.6932 81.7681 67.9237 86.6644 67.9237 92.1047C67.9237 97.5451 65.6932 102.441 62.157 105.978V106.032C58.6208 109.568 53.7245 111.744 48.2842 111.744C42.8438 111.744 37.9476 109.568 34.4113 105.978C30.8751 102.441 28.6446 97.5451 28.6446 92.1047Z" fill="#FFCA01"/>
<path fill-rule="evenodd" clip-rule="evenodd" d="M126.407 102.332V126.923H109.597C109.597 115.008 109.597 103.094 109.597 91.1798C119.661 89.4933 127.332 80.7344 127.332 70.1802H144.088C144.088 83.7266 137.07 95.5865 126.407 102.332Z" fill="white"/>
<path fill-rule="evenodd" clip-rule="evenodd" d="M106.061 56.144C113.841 56.144 120.152 62.4548 120.152 70.2345C120.152 78.0142 113.841 84.3249 106.061 84.3249C98.2815 84.3249 91.9707 78.0142 91.9707 70.2345C91.9707 62.4548 98.2815 56.144 106.061 56.144Z" fill="white"/>
<path fill-rule="evenodd" clip-rule="evenodd" d="M102.525 126.923H85.714V102.006C75.0509 95.2601 67.9785 83.4002 67.9785 69.8538H84.7891C84.7891 80.408 92.46 89.1669 102.525 90.8534C102.525 102.877 102.525 114.9 102.525 126.923Z" fill="white"/>
</g>
</svg>
