<svg width="160" height="160" viewBox="0 0 160 160" fill="none" xmlns="http://www.w3.org/2000/svg">
<g opacity="0.1">
<path fill-rule="evenodd" clip-rule="evenodd" d="M108.019 56.1404C115.826 56.1404 122.142 62.4562 122.142 70.2339C122.142 78.041 115.826 84.3568 108.019 84.3568C100.242 84.3568 93.9258 78.041 93.9258 70.2339C93.9258 62.4562 100.242 56.1404 108.019 56.1404Z" fill="#FFCA01"/>
<path fill-rule="evenodd" clip-rule="evenodd" d="M108.019 88.8889C129.043 88.8889 146.09 105.936 146.09 126.959H129.306C129.306 115.205 119.774 105.673 108.019 105.673C96.2651 105.673 86.7621 115.205 86.7621 126.959H69.9785C69.9785 105.936 87.0253 88.8889 108.019 88.8889Z" fill="#FFCA01"/>
<path d="M46.0893 126.959V85.5555C43.1946 83.1286 41.3232 79.5029 41.3232 75.4093C41.3232 68.1286 47.2297 62.2222 54.5104 62.2222C61.7911 62.2222 67.6975 68.1286 67.6975 75.4093C67.6975 79.5029 65.8554 83.1286 62.9314 85.5555V126.959H46.0893Z" fill="white"/>
<path d="M33.5164 63.9182V105.292C36.4404 107.719 38.2825 111.374 38.2825 115.439C38.2825 122.719 32.376 128.626 25.0953 128.626C17.8146 128.626 11.9082 122.719 11.9082 115.439C11.9082 111.374 13.7795 107.719 16.6743 105.292V63.9182H33.5164Z" fill="white"/>
</g>
</svg>
