<svg width="160" height="160" viewBox="0 0 160 160" fill="none" xmlns="http://www.w3.org/2000/svg">
<path d="M46.2547 68.0709C42.4634 68.0709 39.0295 69.6091 36.5467 72.0919C34.0575 74.5748 32.5193 78.0086 32.5193 81.8063C32.5193 85.6167 34.0447 89.0506 36.5084 91.5143H36.5467C39.0295 94.0035 42.4634 95.5417 46.2547 95.5417C50.0715 95.5417 53.5054 94.0163 55.9691 91.5526L56.001 91.5143C58.4711 89.0506 59.9965 85.6167 59.9965 81.8063C59.9965 78.0086 58.4519 74.5748 55.9691 72.0919V72.06C53.5054 69.5899 50.0715 68.0709 46.2547 68.0709ZM31.4214 108.55L13.0331 126.938L1.12305 115.028L19.5242 96.6268C17.0733 92.2292 15.6755 87.1741 15.6755 81.8063C15.6755 73.3621 19.1029 65.7157 24.6367 60.1819C30.1641 54.6482 37.8168 51.2207 46.2547 51.2207C54.6734 51.2207 62.3134 54.6546 67.8599 60.2011L67.8791 60.1819C73.4128 65.7157 76.8403 73.3621 76.8403 81.8063C76.8403 90.2122 73.4128 97.8459 67.8791 103.392L67.8472 103.424C62.2943 108.958 54.6606 112.386 46.2547 112.386C40.8741 112.386 35.8191 110.994 31.4214 108.55Z" fill="#FFCA01"/>
<path fill-rule="evenodd" clip-rule="evenodd" d="M122.229 108.23C131.566 109.788 138.849 117.428 139.864 126.938H156.695C155.584 108.154 140.847 93.0396 122.229 91.3291V108.23Z" fill="#14469D"/>
<path fill-rule="evenodd" clip-rule="evenodd" d="M98.345 102.326V126.938H115.195C115.195 115.015 115.195 103.092 115.195 91.1696C105.117 89.4909 97.4323 80.7339 97.4323 70.1771H80.6523C80.6523 83.7083 87.7115 95.58 98.345 102.326Z" fill="#14469D"/>
<path fill-rule="evenodd" clip-rule="evenodd" d="M118.712 56.129C110.918 56.129 104.6 62.4414 104.6 70.2346C104.6 78.0278 110.918 84.3466 118.712 84.3466C126.505 84.3466 132.817 78.0278 132.817 70.2346C132.817 62.4414 126.505 56.129 118.712 56.129Z" fill="#14469D"/>
<path d="M123.55 25.0966L93.9473 63.1371H80.6523L64 41.7361L77.2887 31.4026L87.2966 44.2636L110.255 14.7631L123.55 25.0966Z" fill="#FFCA01"/>
</svg>
