<svg width="160" height="160" viewBox="0 0 160 160" fill="none" xmlns="http://www.w3.org/2000/svg">
<g opacity="0.1">
<path fill-rule="evenodd" clip-rule="evenodd" d="M128.881 102.333V126.939H112.041C112.041 115.023 112.041 103.093 112.041 91.1771C122.114 89.4889 129.795 80.7383 129.795 70.187H146.579C146.579 83.7067 139.517 95.5805 128.881 102.333Z" fill="#FFCA01"/>
<path fill-rule="evenodd" clip-rule="evenodd" d="M108.51 56.1328C116.304 56.1328 122.621 62.4495 122.621 70.2434C122.621 78.0373 116.304 84.354 108.51 84.354C100.73 84.354 94.3994 78.0373 94.3994 70.2434C94.3994 62.4495 100.73 56.1328 108.51 56.1328Z" fill="#FFCA01"/>
<path fill-rule="evenodd" clip-rule="evenodd" d="M104.993 126.939H88.1531V102.038C77.6018 95.3413 70.5676 83.5801 70.4551 70.187H87.2387C87.3794 80.5976 95.0185 89.2075 104.993 90.8676C104.993 102.896 104.993 114.925 104.993 126.939Z" fill="#FFCA01"/>
<path fill-rule="evenodd" clip-rule="evenodd" d="M40.743 108.242C31.4016 109.79 24.1282 117.429 23.1012 126.939H6.27539C7.38679 108.158 22.1305 93.0484 40.743 91.332V108.242Z" fill="white"/>
<path fill-rule="evenodd" clip-rule="evenodd" d="M64.6313 102.333V126.939H47.7773C47.7773 115.023 47.7773 103.093 47.7773 91.1771C57.8644 89.4889 65.5457 80.7383 65.5457 70.187H82.3153C82.3153 83.7068 75.267 95.5805 64.6313 102.333Z" fill="white"/>
<path fill-rule="evenodd" clip-rule="evenodd" d="M44.259 56.1328C52.0529 56.1328 58.3697 62.4495 58.3697 70.2434C58.3697 78.0373 52.0529 84.354 44.259 84.354C36.4652 84.354 30.1484 78.0373 30.1484 70.2434C30.1484 62.4495 36.4652 56.1328 44.259 56.1328Z" fill="white"/>
</g>
</svg>
