<svg width="160" height="160" viewBox="0 0 160 160" fill="none" xmlns="http://www.w3.org/2000/svg">
<path fill-rule="evenodd" clip-rule="evenodd" d="M128.883 102.334V126.939H112.043C112.043 115.023 112.043 103.093 112.043 91.1774C122.116 89.4892 129.797 80.7386 129.797 70.1873H146.581C146.581 83.7071 139.519 95.5808 128.883 102.334Z" fill="#FFCA01"/>
<path fill-rule="evenodd" clip-rule="evenodd" d="M108.512 56.133C116.306 56.133 122.623 62.4497 122.623 70.2436C122.623 78.0375 116.306 84.3542 108.512 84.3542C100.732 84.3542 94.4014 78.0375 94.4014 70.2436C94.4014 62.4497 100.732 56.133 108.512 56.133Z" fill="#FFCA01"/>
<path fill-rule="evenodd" clip-rule="evenodd" d="M104.995 126.939H88.1551V102.038C77.6038 95.3416 70.5696 83.5804 70.457 70.1873H87.2406C87.3813 80.5979 95.0205 89.2078 104.995 90.8679C104.995 102.896 104.995 114.925 104.995 126.939Z" fill="#FFCA01"/>
<path fill-rule="evenodd" clip-rule="evenodd" d="M40.744 108.242C31.4025 109.79 24.1292 117.429 23.1022 126.939H6.27637C7.38777 108.158 22.1315 93.0486 40.744 91.3322V108.242Z" fill="#14469D"/>
<path fill-rule="evenodd" clip-rule="evenodd" d="M64.6323 102.334V126.939H47.7783C47.7783 115.023 47.7783 103.093 47.7783 91.1774C57.8654 89.4892 65.5467 80.7387 65.5467 70.1874H82.3163C82.3163 83.7071 75.268 95.5809 64.6323 102.334Z" fill="#14469D"/>
<path fill-rule="evenodd" clip-rule="evenodd" d="M44.261 56.133C52.0549 56.133 58.3716 62.4497 58.3716 70.2436C58.3716 78.0375 52.0549 84.3542 44.261 84.3542C36.4671 84.3542 30.1504 78.0375 30.1504 70.2436C30.1504 62.4497 36.4671 56.133 44.261 56.133Z" fill="#14469D"/>
</svg>
