<svg width="160" height="160" viewBox="0 0 160 160" fill="none" xmlns="http://www.w3.org/2000/svg">
<g opacity="0.1">
<path fill-rule="evenodd" clip-rule="evenodd" d="M67.4135 102.321V126.925H50.5811C50.5811 114.991 50.5811 103.094 50.5811 91.1605C60.6731 89.4662 68.3343 80.7369 68.3343 70.166H85.1299C85.1299 83.6835 78.058 95.5804 67.4135 102.321Z" fill="#FFCA01"/>
<path fill-rule="evenodd" clip-rule="evenodd" d="M47.0453 56.1328C54.8538 56.1328 61.1521 62.4312 61.1521 70.2396C61.1521 78.0113 54.8538 84.3464 47.0453 84.3464C39.2737 84.3464 32.9385 78.0113 32.9385 70.2396C32.9385 62.4312 39.2737 56.1328 47.0453 56.1328Z" fill="#FFCA01"/>
<path fill-rule="evenodd" clip-rule="evenodd" d="M43.5459 126.925H26.7135V102.026C16.0689 95.286 8.99707 83.3891 8.99707 69.8716H25.7927C25.7927 80.4425 33.4538 89.1718 43.5459 90.8661C43.5459 102.873 43.5459 114.918 43.5459 126.925Z" fill="#FFCA01"/>
<path d="M74.4658 103.873L74.4658 126.929L91.3129 126.929L91.3129 103.873L74.4658 103.873Z" fill="white"/>
<path d="M95.3203 94.8633L95.3203 126.929L112.167 126.929L112.167 94.8633L95.3203 94.8633Z" fill="white"/>
<path d="M116.174 82.3333L116.174 126.929L133.021 126.929L133.021 82.3333L116.174 82.3333Z" fill="white"/>
</g>
</svg>
