<svg width="160" height="160" viewBox="0 0 160 160" fill="none" xmlns="http://www.w3.org/2000/svg">
<path fill-rule="evenodd" clip-rule="evenodd" d="M67.4135 102.32V126.924H50.5811C50.5811 114.991 50.5811 103.094 50.5811 91.1601C60.6731 89.4658 68.3343 80.7365 68.3343 70.1656H85.1299C85.1299 83.6831 78.058 95.58 67.4135 102.32Z" fill="#FFCA01"/>
<path fill-rule="evenodd" clip-rule="evenodd" d="M47.0453 56.1326C54.8538 56.1326 61.1521 62.4309 61.1521 70.2394C61.1521 78.011 54.8538 84.3462 47.0453 84.3462C39.2737 84.3462 32.9385 78.011 32.9385 70.2394C32.9385 62.4309 39.2737 56.1326 47.0453 56.1326Z" fill="#FFCA01"/>
<path fill-rule="evenodd" clip-rule="evenodd" d="M43.5459 126.925H26.7135V102.026C16.0689 95.2855 8.99707 83.3887 8.99707 69.8712H25.7927C25.7927 80.4421 33.4538 89.1713 43.5459 90.8656C43.5459 102.873 43.5459 114.917 43.5459 126.925Z" fill="#FFCA01"/>
<path d="M74.4658 103.873L74.4658 126.929L91.3129 126.929L91.3129 103.873L74.4658 103.873Z" fill="#14469D"/>
<path d="M95.3203 94.8632L95.3203 126.929L112.167 126.929L112.167 94.8632L95.3203 94.8632Z" fill="#14469D"/>
<path d="M116.174 82.3333L116.174 126.929L133.021 126.929L133.021 82.3333L116.174 82.3333Z" fill="#14469D"/>
</svg>
