<svg width="130" height="73" viewBox="0 0 130 73" fill="none" xmlns="http://www.w3.org/2000/svg">
<path d="M37.2241 40.3888H15.9258V30.093H37.2241V40.3888Z" fill="#FFCA01"/>
<path d="M60.3786 35.9935C58.046 35.9935 55.9489 36.93 54.4436 38.4353V38.4526C52.9211 39.9751 51.9845 42.0722 51.9845 44.3933C51.9845 46.726 52.9153 48.8231 54.4206 50.3284L54.4436 50.3513C55.9489 51.8566 58.046 52.7874 60.3786 52.7874C62.6998 52.7874 64.7969 51.8509 66.3194 50.3284H66.3366C67.8477 48.8231 68.7784 46.726 68.7784 44.3933C68.7784 42.0722 67.8362 39.9751 66.3194 38.4526C64.7969 36.9358 62.6998 35.9935 60.3786 35.9935ZM51.3181 60.7333L40.0685 71.9829L32.7891 64.7034L44.0386 53.4539C42.5391 50.765 41.683 47.674 41.683 44.3933C41.683 39.2339 43.7801 34.5571 47.1584 31.1731L47.1699 31.1846C50.5654 27.7948 55.2365 25.6977 60.3786 25.6977C65.5438 25.6977 70.2148 27.789 73.5989 31.1731C76.9829 34.5571 79.0742 39.2339 79.0742 44.3933C79.0742 49.5355 76.9772 54.2065 73.5874 57.6021L73.5989 57.6136C70.2148 60.9919 65.5438 63.089 60.3786 63.089C57.098 63.089 54.0069 62.2329 51.3181 60.7333V60.7333Z" fill="#FFCA01"/>
<path d="M37.2241 54.4532H15.9258V44.1517H37.2241V54.4532Z" fill="#FFCA01"/>
<path fill-rule="evenodd" clip-rule="evenodd" d="M103.706 56.941V71.9826H93.4102C93.4102 64.6974 93.4102 57.4064 93.4102 50.1154C99.5693 49.0928 104.269 43.738 104.269 37.2859H114.525C114.525 45.5536 110.21 52.8158 103.706 56.941V56.941Z" fill="#14469D"/>
<path fill-rule="evenodd" clip-rule="evenodd" d="M91.2548 28.6966C96.0235 28.6966 99.8844 32.5575 99.8844 37.3205C99.8844 42.0835 96.0235 45.9444 91.2548 45.9444C86.4918 45.9444 82.6309 42.0835 82.6309 37.3205C82.6309 32.5575 86.4918 28.6966 91.2548 28.6966Z" fill="#14469D"/>
<path fill-rule="evenodd" clip-rule="evenodd" d="M89.1066 71.9827H78.8108V56.7573C72.307 52.6321 67.9922 45.3699 67.9922 37.1022H78.2478C78.2478 43.5543 82.9475 48.909 89.1066 49.9317C89.1066 57.2801 89.1066 64.6343 89.1066 71.9827V71.9827Z" fill="#14469D"/>
</svg>
