<svg width="130" height="73" viewBox="0 0 130 73" fill="none" xmlns="http://www.w3.org/2000/svg">
<path fill-rule="evenodd" clip-rule="evenodd" d="M41.4746 56.6504V71.6877H31.1602C31.1602 64.4134 31.1602 57.139 31.1602 49.8646C37.2945 48.8332 42.0174 43.4589 42.0174 36.9988H52.2775C52.2775 45.3046 47.9346 52.5247 41.4746 56.6504Z" fill="#FFCA01"/>
<path fill-rule="evenodd" clip-rule="evenodd" d="M28.987 28.4214C33.7642 28.4214 37.6185 32.2757 37.6185 37.0529C37.6185 41.8301 33.7642 45.6844 28.987 45.6844C24.2098 45.6844 20.3555 41.8301 20.3555 37.0529C20.3555 32.2757 24.2098 28.4214 28.987 28.4214Z" fill="#FFCA01"/>
<path fill-rule="evenodd" clip-rule="evenodd" d="M26.8713 71.6877H16.5569V56.4876C10.0968 52.3618 5.80819 45.196 5.75391 36.9988H16.014C16.0683 43.4046 20.7369 48.6161 26.8713 49.6475C26.8713 57.0304 26.8713 64.3591 26.8713 71.6877Z" fill="#FFCA01"/>
<path fill-rule="evenodd" clip-rule="evenodd" d="M113.893 56.6504V71.6877H103.633C103.633 64.4134 103.633 57.139 103.633 49.8646C109.767 48.8332 114.49 43.4589 114.49 36.9988H124.75C124.75 45.3046 120.407 52.5247 113.893 56.6504Z" fill="#14469D"/>
<path fill-rule="evenodd" clip-rule="evenodd" d="M101.46 28.4214C106.237 28.4214 110.091 32.2757 110.091 37.0529C110.091 41.8301 106.237 45.6844 101.46 45.6844C96.6825 45.6844 92.8281 41.8301 92.8281 37.0529C92.8281 32.2757 96.6825 28.4214 101.46 28.4214Z" fill="#14469D"/>
<path fill-rule="evenodd" clip-rule="evenodd" d="M99.2893 71.6877H89.0291V56.4876C82.5691 52.3618 78.2804 45.196 78.1719 36.9988H88.432C88.5406 43.4046 93.2092 48.6161 99.2893 49.6475C99.2893 57.0304 99.2893 64.3591 99.2893 71.6877Z" fill="#14469D"/>
<path d="M64.8181 60.7215H51.3008V50.4071H64.9809L61.2352 45.4128L69.4324 39.2241L81.7011 55.4557L69.4324 71.6873L61.2352 65.4987L64.8181 60.7215Z" fill="#FFCA01"/>
</svg>
