<svg width="130" height="73" viewBox="0 0 130 73" fill="none" xmlns="http://www.w3.org/2000/svg">
<g clip-path="url(#clip0_1259_10157)">
<path fill-rule="evenodd" clip-rule="evenodd" d="M41.4054 56.9618V72.0093H31.1074C31.1074 64.7209 31.1074 57.4325 31.1074 50.1441C37.2691 49.1171 41.9616 43.7542 41.9616 37.3073H52.2167C52.2167 45.5799 47.9093 52.8398 41.4054 56.9618Z" fill="#FFCA01"/>
<path fill-rule="evenodd" clip-rule="evenodd" d="M28.9553 28.7209C33.7192 28.7209 37.5845 32.572 37.5845 37.3358C37.5845 42.0997 33.7192 45.965 28.9553 45.965C24.1915 45.965 20.3262 42.0997 20.3262 37.3358C20.3262 32.572 24.1915 28.7209 28.9553 28.7209Z" fill="#FFCA01"/>
<path fill-rule="evenodd" clip-rule="evenodd" d="M26.8007 72.0094H16.5028V56.7764C10.0559 52.6829 5.74846 45.4943 5.69141 37.3073H15.9466C16.0321 43.6686 20.6962 48.9317 26.8007 49.9587C26.8007 57.3041 26.8007 64.6496 26.8007 72.0094Z" fill="#FFCA01"/>
<path fill-rule="evenodd" clip-rule="evenodd" d="M113.946 56.9618V72.0093H103.648C103.648 64.7209 103.648 57.4324 103.648 50.144C109.81 49.1171 114.503 43.7542 114.503 37.3073H124.772C124.772 45.5798 120.45 52.8397 113.946 56.9618Z" fill="#FFCA01"/>
<path fill-rule="evenodd" clip-rule="evenodd" d="M101.496 28.7209C106.26 28.7209 110.126 32.572 110.126 37.3358C110.126 42.0997 106.26 45.965 101.496 45.965C96.7325 45.965 92.8672 42.0997 92.8672 37.3358C92.8672 32.572 96.7325 28.7209 101.496 28.7209Z" fill="#FFCA01"/>
<path fill-rule="evenodd" clip-rule="evenodd" d="M99.3418 72.0094H89.0438V56.7764C82.5969 52.6829 78.3037 45.4943 78.2324 37.3073H88.4876C88.5874 43.6686 93.2514 48.9317 99.3418 49.9587C99.3418 57.3041 99.3418 64.6496 99.3418 72.0094Z" fill="#FFCA01"/>
<path fill-rule="evenodd" clip-rule="evenodd" d="M77.6768 56.9618V72.0093H67.3789C67.3789 64.7209 67.3789 57.4325 67.3789 50.1441C73.5405 49.1171 78.2331 43.7542 78.2331 37.3073H88.4882C88.4882 45.5799 84.1808 52.8398 77.6768 56.9618Z" fill="#14469D"/>
<path fill-rule="evenodd" clip-rule="evenodd" d="M65.2268 28.7209C69.9907 28.7209 73.856 32.572 73.856 37.3358C73.856 42.0997 69.9907 45.965 65.2268 45.965C60.4629 45.965 56.5977 42.0997 56.5977 37.3358C56.5977 32.572 60.4629 28.7209 65.2268 28.7209Z" fill="#14469D"/>
<path fill-rule="evenodd" clip-rule="evenodd" d="M63.0722 72.0094H52.7743V56.7764C46.3274 52.6829 42.0199 45.4943 41.9629 37.3073H52.218C52.3036 43.6686 56.9676 48.9317 63.0722 49.9587C63.0722 57.3041 63.0722 64.6496 63.0722 72.0094Z" fill="#14469D"/>
</g>
<defs>
<clipPath id="clip0_1259_10157">
<rect width="130" height="72.5581" fill="white"/>
</clipPath>
</defs>
</svg>
