<svg width="130" height="73" viewBox="0 0 130 73" fill="none" xmlns="http://www.w3.org/2000/svg">
<path d="M44.5906 35.838C42.288 35.838 40.1625 36.7678 38.657 38.3177C37.1515 39.8232 36.2216 41.9044 36.2216 44.2512C36.2216 46.5538 37.1515 48.6793 38.657 50.1848C40.1625 51.6903 42.288 52.6202 44.5906 52.6202C46.9374 52.6202 49.0186 51.6903 50.5242 50.1848H50.5684C52.074 48.6793 53.0039 46.5538 53.0039 44.2512C53.0039 41.9044 52.074 39.8232 50.5242 38.3177V38.2734C49.0186 36.7678 46.9374 35.838 44.5906 35.838ZM35.5131 60.5907L24.3102 71.8379L17.0039 64.5317L28.2511 53.2844C26.7456 50.6276 25.9043 47.528 25.9043 44.2512C25.9043 39.0704 27.9854 34.421 31.395 31.0114C34.7603 27.6461 39.4541 25.5206 44.5906 25.5206C49.7271 25.5206 54.4208 27.6461 57.8304 31.0114C61.1957 34.421 63.3212 39.0704 63.3212 44.2512C63.3212 49.3878 61.1957 54.0372 57.8304 57.4468H57.7861C54.4208 60.8564 49.7271 62.9376 44.5906 62.9376C41.3138 62.9376 38.2142 62.0962 35.5131 60.5907Z" fill="#FFCA01"/>
<path fill-rule="evenodd" clip-rule="evenodd" d="M92.3691 60.4136C98.0813 61.3435 102.554 66.0372 103.174 71.838H113.447C112.782 60.3693 103.749 51.1147 92.3691 50.052V60.4136Z" fill="#14469D"/>
<path fill-rule="evenodd" clip-rule="evenodd" d="M77.7999 56.7832V71.8386H88.0729C88.0729 64.5323 88.0729 57.2703 88.0729 49.9641C81.918 48.9456 77.2242 43.5877 77.2242 37.1227H66.9512C66.9512 45.4032 71.2907 52.6652 77.7999 56.7832Z" fill="#14469D"/>
<path fill-rule="evenodd" clip-rule="evenodd" d="M90.2421 28.532C85.4598 28.532 81.6074 32.3844 81.6074 37.1667C81.6074 41.9489 85.4598 45.8013 90.2421 45.8013C94.9801 45.8013 98.8768 41.9489 98.8768 37.1667C98.8768 32.3844 94.9801 28.532 90.2421 28.532Z" fill="#14469D"/>
<path d="M93.2103 9.57972L75.0996 32.8269H66.9521L56.7676 19.7199L64.9152 13.4321L71.0259 21.2697L85.0627 3.24762L93.2103 9.57972Z" fill="#FFCA01"/>
</svg>
