<svg width="130" height="73" viewBox="0 0 130 73" fill="none" xmlns="http://www.w3.org/2000/svg">
<g clip-path="url(#clip0_1259_14062)">
<path fill-rule="evenodd" clip-rule="evenodd" d="M63.0224 56.9747V72.0157H52.7461C52.7461 64.727 52.7461 57.4383 52.7461 50.1496C58.9016 49.1194 63.589 43.7623 63.589 37.3235H73.8396C73.8396 45.5909 69.5385 52.8539 63.0224 56.9747Z" fill="#14469D"/>
<path fill-rule="evenodd" clip-rule="evenodd" d="M50.5811 28.7209C55.3458 28.7209 59.2091 32.5842 59.2091 37.3489C59.2091 42.1137 55.3458 45.9769 50.5811 45.9769C45.8164 45.9769 41.9531 42.1137 41.9531 37.3489C41.9531 32.5842 45.8164 28.7209 50.5811 28.7209Z" fill="#14469D"/>
<path fill-rule="evenodd" clip-rule="evenodd" d="M48.4177 72.0152H38.1414V56.7939C31.6253 52.6473 27.3242 45.4101 27.3242 37.1169H37.5748C37.5748 43.5815 42.2622 48.9386 48.4177 49.9688C48.4177 57.309 48.4177 64.675 48.4177 72.0152Z" fill="#14469D"/>
<path d="M67.3359 57.9208L67.3359 72.0156L77.6289 72.0156L77.6289 57.9208L67.3359 57.9208Z" fill="#FFCA01"/>
<path d="M80.0859 52.4132L80.0859 72.0156L90.3789 72.0156L90.3789 52.4132L80.0859 52.4132Z" fill="#FFCA01"/>
<path d="M92.8398 44.7535L92.8398 72.0156L103.133 72.0156L103.133 44.7535L92.8398 44.7535Z" fill="#FFCA01"/>
</g>
<defs>
<clipPath id="clip0_1259_14062">
<rect width="130" height="72.5581" fill="white"/>
</clipPath>
</defs>
</svg>
