<svg width="130" height="73" viewBox="0 0 130 73" fill="none" xmlns="http://www.w3.org/2000/svg">
<path d="M37.2241 40.3888H15.9258V30.093H37.2241V40.3888Z" fill="#FFCA01"/>
<path d="M60.3786 35.9936C58.046 35.9936 55.9489 36.9301 54.4436 38.4354V38.4526C52.9211 39.9752 51.9845 42.0722 51.9845 44.3934C51.9845 46.726 52.9153 48.8231 54.4206 50.3284L54.4436 50.3514C55.9489 51.8567 58.046 52.7875 60.3786 52.7875C62.6998 52.7875 64.7969 51.851 66.3194 50.3284H66.3366C67.8477 48.8231 68.7784 46.726 68.7784 44.3934C68.7784 42.0722 67.8362 39.9752 66.3194 38.4526C64.7969 36.9358 62.6998 35.9936 60.3786 35.9936ZM51.3181 60.7334L40.0685 71.983L32.7891 64.7035L44.0386 53.4539C42.5391 50.7651 41.683 47.674 41.683 44.3934C41.683 39.234 43.7801 34.5572 47.1584 31.1732L47.1699 31.1846C50.5654 27.7948 55.2365 25.6978 60.3786 25.6978C65.5438 25.6978 70.2148 27.7891 73.5989 31.1732C76.9829 34.5572 79.0742 39.234 79.0742 44.3934C79.0742 49.5356 76.9772 54.2066 73.5874 57.6021L73.5989 57.6136C70.2148 60.9919 65.5438 63.089 60.3786 63.089C57.098 63.089 54.0069 62.233 51.3181 60.7334Z" fill="#FFCA01"/>
<path d="M37.2241 54.4532H15.9258V44.1516H37.2241V54.4532Z" fill="#FFCA01"/>
<path fill-rule="evenodd" clip-rule="evenodd" d="M103.706 56.941V71.9826H93.4102C93.4102 64.6974 93.4102 57.4064 93.4102 50.1154C99.5693 49.0928 104.269 43.738 104.269 37.2859H114.525C114.525 45.5536 110.21 52.8158 103.706 56.941Z" fill="#14469D"/>
<path fill-rule="evenodd" clip-rule="evenodd" d="M91.2567 28.6965C96.0254 28.6965 99.8864 32.5575 99.8864 37.3204C99.8864 42.0834 96.0254 45.9443 91.2567 45.9443C86.4937 45.9443 82.6328 42.0834 82.6328 37.3204C82.6328 32.5575 86.4937 28.6965 91.2567 28.6965Z" fill="#14469D"/>
<path fill-rule="evenodd" clip-rule="evenodd" d="M89.1066 71.9826H78.8108V56.7572C72.307 52.632 67.9922 45.3697 67.9922 37.1021H78.2478C78.2478 43.5542 82.9475 48.9089 89.1066 49.9316C89.1066 57.28 89.1066 64.6342 89.1066 71.9826Z" fill="#14469D"/>
</svg>
