<svg width="130" height="73" viewBox="0 0 130 73" fill="none" xmlns="http://www.w3.org/2000/svg">
<g clip-path="url(#clip0_1259_14087)">
<path d="M63.9375 32.5986L63.9375 73.0813L74.2319 73.0813L74.2319 32.5986L63.9375 32.5986Z" fill="#FFCA01"/>
<path d="M108.262 59.0292H78.543V48.7292H108.262V59.0292Z" fill="#FFCA01"/>
<path d="M108.262 73.0775H78.543V62.7776H108.262V73.0775Z" fill="#FFCA01"/>
<path d="M64.0234 29.3101C64.0234 25.3256 65.3149 22.1443 67.3308 19.7662C69.7089 16.9943 73.0319 15.4824 76.4023 15.1674C80.56 14.7894 83.6311 16.5691 86.7022 18.3488C87.7574 18.963 88.8126 19.5772 89.6945 19.9237C92.1514 20.8844 94.0098 20.6954 95.4272 20.0812C97.0966 19.3567 98.5613 17.9235 99.6007 16.8998L106.798 24.2232C105.192 25.7981 102.908 28.003 99.5377 29.4834C95.9154 31.0583 91.4112 31.641 85.962 29.4991C84.3398 28.8692 82.9539 28.0502 81.5522 27.2313C79.8828 26.2706 78.2134 25.2941 77.3315 25.3729C76.4967 25.4516 75.6778 25.8138 75.1423 26.4438C74.6384 27.0265 74.3234 27.9715 74.3234 29.3101H64.0234V29.3101Z" fill="#FFCA01"/>
<path fill-rule="evenodd" clip-rule="evenodd" d="M45.4547 29.7983C50.211 29.7983 54.0695 33.6569 54.0695 38.4131C54.0695 43.1851 50.211 47.0436 45.4547 47.0436C40.6828 47.0436 36.8242 43.1851 36.8242 38.4131C36.8242 33.6569 40.6828 29.7983 45.4547 29.7983Z" fill="#14469D"/>
<path fill-rule="evenodd" clip-rule="evenodd" d="M45.453 49.8154C58.3043 49.8154 68.7145 60.2256 68.7145 73.0769H58.4618C58.4618 65.8953 52.6346 60.0681 45.453 60.0681C38.2714 60.0681 32.4442 65.8953 32.4442 73.0769H22.1758C22.1758 60.2256 32.6017 49.8154 45.453 49.8154V49.8154Z" fill="#14469D"/>
</g>
<defs>
<clipPath id="clip0_1259_14087">
<rect width="130" height="72.5581" fill="white"/>
</clipPath>
</defs>
</svg>
