<svg width="130" height="73" viewBox="0 0 130 73" fill="none" xmlns="http://www.w3.org/2000/svg">
<path fill-rule="evenodd" clip-rule="evenodd" d="M111.224 56.9224V71.9691H100.941C100.941 64.7028 100.941 57.4023 100.941 50.1017C107.111 49.0735 111.807 43.7266 111.807 37.283H122.055C122.055 45.5432 117.736 52.8095 111.224 56.9224Z" fill="#FFCA01"/>
<path fill-rule="evenodd" clip-rule="evenodd" d="M98.7818 28.6797C103.546 28.6797 107.419 32.5527 107.419 37.3169C107.419 42.0811 103.546 45.9199 98.7818 45.9199C94.0176 45.9199 90.1445 42.0811 90.1445 37.3169C90.1445 32.5527 94.0176 28.6797 98.7818 28.6797Z" fill="#FFCA01"/>
<path fill-rule="evenodd" clip-rule="evenodd" d="M96.6211 71.9691H86.3387V56.7511C79.8607 52.6381 75.5764 45.4746 75.5078 37.283H85.756C85.8588 43.6581 90.5202 48.9021 96.6211 49.9304C96.6211 57.2652 96.6211 64.6343 96.6211 71.9691Z" fill="#FFCA01"/>
<path fill-rule="evenodd" clip-rule="evenodd" d="M31.6694 28.6797C36.4336 28.6797 40.3067 32.5527 40.3067 37.3169C40.3067 42.0811 36.4336 45.9199 31.6694 45.9199C26.9052 45.9199 23.0664 42.0811 23.0664 37.3169C23.0664 32.5527 26.9052 28.6797 31.6694 28.6797Z" fill="#FFCA01"/>
<path fill-rule="evenodd" clip-rule="evenodd" d="M31.668 48.6963C44.5211 48.6963 54.9406 59.1158 54.9406 71.9689H44.6925C44.6925 64.8055 38.8657 58.9787 31.668 58.9787C24.5046 58.9787 18.6779 64.8055 18.6779 71.9689H8.42969C8.42969 59.1158 18.815 48.6963 31.668 48.6963Z" fill="#FFCA01"/>
<path d="M62.5513 35.9802C60.2206 35.9802 58.1299 36.9056 56.5875 38.448C55.0794 39.9561 54.1197 42.0469 54.1197 44.3775C54.1197 46.7082 55.0794 48.799 56.5875 50.3071C58.1299 51.8495 60.2206 52.7749 62.5513 52.7749C64.882 52.7749 66.9728 51.8495 68.4809 50.3414V50.3071C69.9889 48.799 70.9486 46.7082 70.9486 44.3775C70.9486 42.0469 69.9889 39.9561 68.4809 38.448V38.4137C66.9728 36.9056 64.882 35.9802 62.5513 35.9802ZM53.4685 60.7266L42.2263 71.9688L34.9258 64.7025L46.2022 53.4604C44.6941 50.7527 43.8372 47.6679 43.8372 44.3775C43.8372 39.202 45.928 34.5407 49.3212 31.1475C52.6802 27.7885 57.3758 25.6978 62.5513 25.6978C67.6925 25.6978 72.3539 27.7885 75.7471 31.1817V31.1475C79.1403 34.5407 81.2311 39.202 81.2311 44.3775C81.2311 49.5188 79.1403 54.1801 75.7471 57.5733V57.6076C72.3539 61.0008 67.6583 63.0916 62.5513 63.0916C59.2609 63.0916 56.1419 62.2347 53.4685 60.7266Z" fill="#14469D"/>
</svg>
