<svg width="130" height="73" viewBox="0 0 130 73" fill="none" xmlns="http://www.w3.org/2000/svg">
<path fill-rule="evenodd" clip-rule="evenodd" d="M91.1364 28.4104C95.8989 28.4104 99.7606 32.2721 99.7606 37.039C99.7606 41.8014 95.8989 45.6631 91.1364 45.6631C86.374 45.6631 82.5078 41.8014 82.5078 37.039C82.5078 32.2721 86.374 28.4104 91.1364 28.4104Z" fill="#14469D"/>
<path fill-rule="evenodd" clip-rule="evenodd" d="M91.1354 48.4321C103.982 48.4321 114.399 58.8489 114.399 71.7003H104.143C104.143 64.5165 98.3192 58.6883 91.1354 58.6883C83.9516 58.6883 78.1234 64.5165 78.1234 71.7003H67.8672C67.8672 58.8489 78.2839 48.4321 91.1354 48.4321Z" fill="#14469D"/>
<path d="M37.3519 40.1067H16.0547V29.8059H37.3519V40.1067Z" fill="#FFCA01"/>
<path d="M37.3519 54.167H16.0547V43.8662H37.3519V54.167Z" fill="#FFCA01"/>
<path d="M76.8095 53.1678L88.0601 64.4184L80.7782 71.7003L69.5276 60.4497C66.8387 61.948 63.7485 62.8042 60.4665 62.8042C55.3072 62.8042 50.6294 60.7084 47.2494 57.3238L47.2583 57.3149C43.8693 53.9214 41.7734 49.2482 41.7734 44.1067C41.7734 38.9429 43.8648 34.2696 47.2494 30.8851C50.6294 27.505 55.3072 25.4092 60.4665 25.4092C65.6124 25.4092 70.2812 27.5095 73.6747 30.8985L73.6881 30.8851C77.0682 34.2696 79.164 38.9429 79.164 44.1067C79.164 47.3887 78.3078 50.4789 76.8095 53.1678ZM66.4062 38.1492C64.8989 36.642 62.7987 35.71 60.4665 35.71C58.1477 35.71 56.0474 36.6509 54.5268 38.167C53.0107 39.6876 52.0698 41.7879 52.0698 44.1067C52.0698 46.4389 53.0017 48.5391 54.509 50.0464H54.5268C56.0474 51.5625 58.1477 52.5034 60.4665 52.5034C62.7987 52.5034 64.8989 51.5714 66.4062 50.0642L66.424 50.0464C67.9312 48.5391 68.8632 46.4389 68.8632 44.1067C68.8632 41.7879 67.9223 39.6876 66.4062 38.167V38.1492Z" fill="#FFCA01"/>
</svg>
