<svg width="130" height="73" viewBox="0 0 130 73" fill="none" xmlns="http://www.w3.org/2000/svg">
<g clip-path="url(#clip0_1259_14067)">
<path fill-rule="evenodd" clip-rule="evenodd" d="M82.9657 28.7209C87.7217 28.7209 91.5799 32.5791 91.5799 37.3351C91.5799 42.0911 87.7217 45.9735 82.9657 45.9735C78.2097 45.9735 74.3516 42.0911 74.3516 37.3351C74.3516 32.5791 78.2097 28.7209 82.9657 28.7209Z" fill="#FFCA01"/>
<path fill-rule="evenodd" clip-rule="evenodd" d="M82.9657 48.7399C95.8263 48.7399 106.236 59.1497 106.236 72.0102H95.9719C95.9719 64.8277 90.1482 58.9798 82.9657 58.9798C75.7832 58.9798 69.9595 64.8277 69.9595 72.0102H59.6953C59.6953 59.1497 70.1051 48.7399 82.9657 48.7399Z" fill="#FFCA01"/>
<path d="M45.1111 72.0102V46.7016C43.3154 45.2214 42.1992 42.989 42.1992 40.4897C42.1992 36.0491 45.7905 32.4336 50.2553 32.4336C54.6958 32.4336 58.3114 36.0491 58.3114 40.4897C58.3114 42.989 57.1709 45.2214 55.3995 46.7016V72.0102H45.1111Z" fill="#14469D"/>
<path d="M37.4191 33.4773V58.7617C39.2147 60.2419 40.3309 62.4743 40.3309 64.9736C40.3309 69.4141 36.7396 73.0297 32.2748 73.0297C27.8343 73.0297 24.2188 69.4141 24.2188 64.9736C24.2188 62.4743 25.3592 60.2419 27.1306 58.7617V33.4773H37.4191Z" fill="#14469D"/>
</g>
<defs>
<clipPath id="clip0_1259_14067">
<rect width="130" height="72.5581" fill="white"/>
</clipPath>
</defs>
</svg>
